<?xml version="1.0" encoding="UTF-8"?>
<svg version="1.1" xmlns="http://www.w3.org/2000/svg" width="392" height="282">
<path d="M0 0 C21.55462243 8.29648689 34.13907785 25.61746483 44.12255859 45.51831055 C44.65623047 44.59791992 45.18990234 43.6775293 45.73974609 42.72924805 C49.74443366 35.89536918 53.88046343 29.1891286 58.43505859 22.70581055 C58.84288574 22.11396973 59.25071289 21.52212891 59.67089844 20.91235352 C61.83451872 17.88754666 63.57124851 15.79418167 67.12255859 14.51831055 C67.12255859 13.85831055 67.12255859 13.19831055 67.12255859 12.51831055 C69.00751719 10.99818264 70.87309895 9.62375263 72.87255859 8.26831055 C73.46093506 7.86789551 74.04931152 7.46748047 74.65551758 7.05493164 C91.54779901 -4.21865792 106.24867176 -5.99896227 126.12255859 -5.48168945 C126.12255859 -1.48168945 126.12255859 -1.48168945 123.91943359 0.82299805 C122.41123047 2.09530273 122.41123047 2.09530273 120.87255859 3.39331055 C101.52901014 20.33330796 81.59475857 45.61097729 74.12255859 70.51831055 C74.93337891 69.80545898 75.74419922 69.09260742 76.57958984 68.3581543 C83.41922421 62.41376547 90.26509895 57.08929222 98.12255859 52.51831055 C98.94626953 52.01944336 99.76998047 51.52057617 100.61865234 51.0065918 C123.92436891 37.49140456 152.06510334 31.18280021 178.5793457 37.5480957 C194.62392065 41.87693168 208.33395844 49.75950894 218.12255859 63.51831055 C218.12255859 64.50831055 218.12255859 65.49831055 218.12255859 66.51831055 C217.24857422 66.53289307 216.37458984 66.54747559 215.47412109 66.5625 C178.08135134 67.25577528 142.84201023 70.42844321 110.12255859 90.51831055 C110.89631836 90.48688965 111.67007813 90.45546875 112.46728516 90.4230957 C128.99879501 89.84265602 143.63751039 90.03619735 159.12255859 96.51831055 C159.95529297 96.86635742 160.78802734 97.2144043 161.64599609 97.57299805 C175.62150694 103.56250269 187.15048825 110.91691826 198.12255859 121.51831055 C198.76193359 122.1319043 199.40130859 122.74549805 200.06005859 123.37768555 C211.64045714 135.47506617 215.57104828 151.38994273 215.22802734 167.65893555 C215.19322266 168.6025293 215.15841797 169.54612305 215.12255859 170.51831055 C214.13255859 170.84831055 213.14255859 171.17831055 212.12255859 171.51831055 C210.3359375 170.56542969 210.3359375 170.56542969 208.34912109 169.0534668 C207.61395264 168.50480957 206.87878418 167.95615234 206.12133789 167.39086914 C205.33799072 166.7935498 204.55464355 166.19623047 203.74755859 165.58081055 C202.1027204 164.36285827 200.45557599 163.14801444 198.80615234 161.9362793 C198.00032715 161.34379395 197.19450195 160.75130859 196.36425781 160.14086914 C191.47687912 156.60334803 186.37799235 153.47977063 181.12255859 150.51831055 C180.38231445 150.09839844 179.64207031 149.67848633 178.87939453 149.24584961 C160.788871 139.09469563 128.61004682 121.26281052 106.86865234 126.01049805 C106.00433594 126.26186523 106.00433594 126.26186523 105.12255859 126.51831055 C106.68103516 127.2453418 106.68103516 127.2453418 108.27099609 127.98706055 C131.67275821 139.13289801 149.40634114 159.24103318 158.29833984 183.76049805 C159.34449514 186.99406895 160.2694381 190.22887481 161.12255859 193.51831055 C161.34943359 194.38713867 161.57630859 195.2559668 161.81005859 196.15112305 C164.63028353 208.95964465 165.2261283 224.00305017 158.12255859 235.51831055 C156.02978516 236.66870117 156.02978516 236.66870117 154.12255859 237.51831055 C153.70594971 236.91583496 153.28934082 236.31335938 152.86010742 235.69262695 C147.96633964 228.62139085 143.0532133 221.56387643 138.12255859 214.51831055 C137.21159424 213.21627686 137.21159424 213.21627686 136.28222656 211.88793945 C129.0611262 201.60863756 121.45331868 191.91806197 113.12255859 182.51831055 C112.45482422 181.72811523 111.78708984 180.93791992 111.09912109 180.1237793 C107.12957638 175.42678408 102.8575563 171.43518174 98.12255859 167.51831055 C97.54795898 167.03668457 96.97335938 166.55505859 96.38134766 166.05883789 C88.28077258 159.2784321 80.25320301 152.87128466 71.12255859 147.51831055 C69.45568683 146.51865245 67.78896404 145.51874579 66.12255859 144.51831055 C65.09158486 147.61123176 65.06710637 149.42821979 65.20849609 152.65112305 C65.25176025 153.74158936 65.29502441 154.83205566 65.33959961 155.95556641 C65.39172607 157.17252197 65.44385254 158.38947754 65.49755859 159.64331055 C65.60056614 162.3763196 65.70143686 165.10930589 65.79833984 167.8425293 C65.82498215 168.59049271 65.85162445 169.33845612 65.8790741 170.10908508 C66.78948505 196.39730751 67.20993403 222.71500683 67.24755859 249.01831055 C67.25014679 249.86271698 67.25273499 250.70712341 67.25540161 251.57711792 C67.26115312 253.92214429 67.2597507 256.26703385 67.25537109 258.61206055 C67.25424316 259.92883789 67.25311523 261.24561523 67.25195312 262.60229492 C67.12255859 265.51831055 67.12255859 265.51831055 66.12255859 266.51831055 C64.75705983 266.61624798 63.38658383 266.64629128 62.01757812 266.64770508 C61.14642365 266.65085724 60.27526917 266.6540094 59.37771606 266.65725708 C58.42984222 266.65523285 57.48196838 266.65320862 56.50537109 266.65112305 C55.53727509 266.65207977 54.56917908 266.6530365 53.57174683 266.65402222 C51.5188592 266.65470426 49.46596944 266.65284831 47.41308594 266.64868164 C44.26801704 266.64334526 41.1230917 266.64861985 37.97802734 266.6550293 C35.98714161 266.65436829 33.99625597 266.65308667 32.00537109 266.65112305 C31.06154572 266.65314728 30.11772034 266.65517151 29.14529419 266.65725708 C28.26783539 266.65410492 27.39037659 266.65095276 26.48632812 266.64770508 C25.71435089 266.64690948 24.94237366 266.64611389 24.14700317 266.64529419 C22.12255859 266.51831055 22.12255859 266.51831055 19.12255859 265.51831055 C18.67646231 233.38565236 19.83065295 201.56744152 22.12255859 169.51831055 C22.23555827 167.91301909 22.34836349 166.30771394 22.4609375 164.70239258 C22.98180312 157.30507565 23.52604486 149.90994032 24.12255859 142.51831055 C11.43479818 147.27815812 2.31387939 154.99383171 -7.42529297 164.16333008 C-10.44247973 166.97862707 -13.54113174 169.70460685 -16.62353516 172.44799805 C-19.11515073 174.73665707 -21.49261393 177.11878459 -23.87744141 179.51831055 C-24.70501953 180.31108398 -25.53259766 181.10385742 -26.38525391 181.9206543 C-38.30264773 193.46451787 -47.25632588 206.26418218 -55.83447266 220.44018555 C-56.33672363 221.2684082 -56.83897461 222.09663086 -57.35644531 222.94995117 C-58.41903943 224.74425134 -59.45025411 226.55734144 -60.45703125 228.38354492 C-60.97088379 229.29942383 -61.48473633 230.21530273 -62.01416016 231.15893555 C-62.46879639 231.99457031 -62.92343262 232.83020508 -63.3918457 233.69116211 C-64.12721558 234.59560059 -64.12721558 234.59560059 -64.87744141 235.51831055 C-66.19744141 235.51831055 -67.51744141 235.51831055 -68.87744141 235.51831055 C-77.38084567 220.84831541 -77.41270781 204.77946829 -73.47265625 188.61206055 C-71.67539882 182.28996057 -68.79611792 176.38600325 -65.87744141 170.51831055 C-65.00345703 168.74713867 -65.00345703 168.74713867 -64.11181641 166.94018555 C-55.82104678 150.88148763 -43.68472658 139.65283634 -29.14306641 129.26049805 C-26.7950342 127.71718235 -26.7950342 127.71718235 -25.87744141 125.51831055 C-42.52695812 128.80766539 -58.29709738 132.73498891 -73.87744141 139.51831055 C-74.66489746 139.85701172 -75.45235352 140.19571289 -76.26367188 140.54467773 C-88.94617444 146.07113137 -100.74273991 152.94431101 -112.55200195 160.12133789 C-114.64519123 161.37878976 -116.7543245 162.59664163 -118.88134766 163.7956543 C-121.83241693 165.39120689 -121.83241693 165.39120689 -124.06494141 167.26831055 C-125.87744141 168.51831055 -125.87744141 168.51831055 -129.87744141 168.51831055 C-130.48672475 150.42728214 -122.13376417 135.94588488 -110.26806641 123.00366211 C-92.37541661 103.8922012 -66.69800695 93.36602737 -40.78759766 91.6003418 C-34.15127229 91.41327759 -27.51535906 91.4482739 -20.87744141 91.51831055 C-54.59347881 72.87532516 -89.97916389 68.92336114 -127.87744141 69.51831055 C-126.28419695 60.53603991 -118.10151836 55.8200786 -111.05322266 50.65893555 C-99.12908379 42.62150861 -86.25001277 37.94049336 -71.87744141 37.51831055 C-70.31703125 37.45836914 -70.31703125 37.45836914 -68.72509766 37.3972168 C-38.38092508 36.77194294 -11.02828722 49.80495347 12.12255859 68.51831055 C12.78255859 69.17831055 13.44255859 69.83831055 14.12255859 70.51831055 C7.19450493 45.83711936 -10.27454605 26.94640766 -27.98681641 9.3737793 C-28.65817627 8.70741455 -29.32953613 8.0410498 -30.02124023 7.35449219 C-31.16316709 6.22488126 -32.30817038 5.09835812 -33.45825195 3.97705078 C-35.84862225 1.63413415 -37.60330655 -0.35426754 -38.87744141 -3.48168945 C-27.99800965 -9.6844424 -10.97753509 -3.9810392 0 0 Z " fill="#029534" transform="translate(147.87744140625,10.481689453125)"/>
<path d="M0 0 C9.89494459 0.81918931 9.89494459 0.81918931 14 3 C14.495 3.99 14.495 3.99 15 5 C15.66 5 16.32 5 17 5 C17 5.66 17 6.32 17 7 C17.66 7 18.32 7 19 7 C20.625 8.375 20.625 8.375 22 10 C22 10.66 22 11.32 22 12 C22.58136719 12.10828125 23.16273438 12.2165625 23.76171875 12.328125 C26.28324281 13.08502227 27.7531712 14.12266889 29.8125 15.75 C32.49153098 17.84095101 35.19183068 19.83611584 38 21.75 C38.99 22.4925 39.98 23.235 41 24 C41 24.66 41 25.32 41 26 C41.66 26 42.32 26 43 26 C43 26.66 43 27.32 43 28 C43.99 28 44.98 28 46 28 C46.495 29.485 46.495 29.485 47 31 C47.66 31.33 48.32 31.66 49 32 C49 32.66 49 33.32 49 34 C50.485 34.495 50.485 34.495 52 35 C55.8476605 38.28182807 55.8476605 38.28182807 56.4375 41.0625 C56.8365239 43.27077475 56.8365239 43.27077475 59.375 44.375 C63.47267415 46.91165543 64.52205311 50.56615932 66 55 C66.99 55 67.98 55 69 55 C69.81498562 56.6029053 70.62689927 58.20737278 71.4375 59.8125 C71.88996094 60.70582031 72.34242188 61.59914062 72.80859375 62.51953125 C74 65 74 65 75 68 C75.99 68 76.98 68 78 68 C78 69.32 78 70.64 78 72 C78.99 72 79.98 72 81 72 C81.99 75.465 81.99 75.465 83 79 C77.85893484 76.56426931 75.60126388 72.96709274 72.5625 68.375 C66.2389255 59.11904237 59.26340415 50.52903255 52 42 C50.82050781 40.60394531 50.82050781 40.60394531 49.6171875 39.1796875 C45.41597538 34.31946172 40.95184264 30.08431052 36 26 C35.14027588 25.27973633 35.14027588 25.27973633 34.26318359 24.54492188 C26.16106418 17.76289092 18.13259117 11.35411542 9 6 C7.33312824 5.0003419 5.66640545 4.00043524 4 3 C2.96902626 6.09292122 2.94454778 7.90990925 3.0859375 11.1328125 C3.12920166 12.22327881 3.17246582 13.31374512 3.21704102 14.43725586 C3.26916748 15.65421143 3.32129395 16.87116699 3.375 18.125 C3.47800754 20.85800906 3.57887827 23.59099535 3.67578125 26.32421875 C3.70242355 27.07218216 3.72906586 27.82014557 3.7565155 28.59077454 C4.66692646 54.87899696 5.08737543 81.19669628 5.125 107.5 C5.1275882 108.34440643 5.13017639 109.18881287 5.13284302 110.05880737 C5.13859453 112.40383374 5.1371921 114.7487233 5.1328125 117.09375 C5.13168457 118.41052734 5.13055664 119.72730469 5.12939453 121.08398438 C5 124 5 124 4 125 C2.63450123 125.09793744 1.26402524 125.12798073 -0.10498047 125.12939453 C-0.97613495 125.13254669 -1.84728943 125.13569885 -2.74484253 125.13894653 C-3.69271637 125.1369223 -4.64059021 125.13489807 -5.6171875 125.1328125 C-6.58528351 125.13376923 -7.55337952 125.13472595 -8.55081177 125.13571167 C-10.60369939 125.13639371 -12.65658915 125.13453776 -14.70947266 125.13037109 C-17.85454156 125.12503471 -20.99946689 125.13030931 -24.14453125 125.13671875 C-26.13541698 125.13605775 -28.12630263 125.13477612 -30.1171875 125.1328125 C-31.06101288 125.13483673 -32.00483826 125.13686096 -32.9772644 125.13894653 C-34.29345261 125.13421829 -34.29345261 125.13421829 -35.63623047 125.12939453 C-36.4082077 125.12859894 -37.18018494 125.12780334 -37.97555542 125.12698364 C-40 125 -40 125 -43 124 C-43.02563852 117.70524987 -43.04298616 111.41051352 -43.05493164 105.11572266 C-43.05991869 102.98030087 -43.06671072 100.84488242 -43.07543945 98.70947266 C-43.12168415 87.09389217 -43.12726999 75.57262742 -42 64 C-39.39996979 69.20006041 -39.03778312 72.36486163 -39.4375 78.1875 C-40.01393267 87.70991507 -40.08888661 97.21431714 -40.0625 106.75 C-40.0606369 107.45619476 -40.0587738 108.16238953 -40.05685425 108.88998413 C-40.04470553 112.92670257 -40.02533629 116.96334414 -40 121 C-39.2575 120.814375 -38.515 120.62875 -37.75 120.4375 C-34.91395721 119.98631137 -33.71262103 120.29966065 -31 121 C-28.52180955 121.01587669 -26.08277153 120.97734123 -23.609375 120.87890625 C-22.90476135 120.85529526 -22.20014771 120.83168427 -21.47418213 120.80735779 C-19.2325672 120.73103023 -16.99132504 120.64687421 -14.75 120.5625 C-13.2265805 120.5092483 -11.70314302 120.45650812 -10.1796875 120.40429688 C-6.45289845 120.27545752 -2.72640333 120.13959768 1 120 C2.51715789 113.47811277 2.19553249 106.84384914 2.1875 100.1875 C2.18756042 99.42376068 2.18762085 98.66002136 2.18768311 97.87313843 C2.16898702 80.73643757 1.69445715 63.60799456 1.18811417 46.48010635 C1.12522772 44.32032099 1.06534584 42.16047047 1.00619507 40.00057983 C0.89279912 35.89192821 0.76378639 31.78391063 0.6328125 27.67578125 C0.59937241 26.44473663 0.56593231 25.21369202 0.53147888 23.94534302 C0.3198952 17.77780822 -0.18008055 12.07066311 -1.78005981 6.09733582 C-2.0541136 3.48397614 -1.34741576 2.20932963 0 0 Z " fill="#1E9A37" transform="translate(210,152)"/>
<path d="M0 0 C0 0.66 0 1.32 0 2 C0.639375 1.938125 1.27875 1.87625 1.9375 1.8125 C5.48562079 2.02973189 8.27825931 3.03070777 11.609375 4.2109375 C13.89916873 4.96671909 16.1401332 5.51317433 18.5 6 C21.71328063 6.68451929 24.85696434 7.47768057 28 8.4375 C28.7425 8.66308594 29.485 8.88867188 30.25 9.12109375 C32 10 32 10 33 13 C33.74765625 13.13277344 34.4953125 13.26554687 35.265625 13.40234375 C36.25046875 13.57894531 37.2353125 13.75554687 38.25 13.9375 C39.22453125 14.11152344 40.1990625 14.28554687 41.203125 14.46484375 C43.49721795 14.90379729 45.74291971 15.40348592 48 16 C48 16.66 48 17.32 48 18 C48.99 17.67 49.98 17.34 51 17 C51 17.66 51 18.32 51 19 C55.95 19.99 55.95 19.99 61 21 C61 21.66 61 22.32 61 23 C62.98 23.495 62.98 23.495 65 24 C65 24.66 65 25.32 65 26 C65.598125 26.103125 66.19625 26.20625 66.8125 26.3125 C69.38994819 27.12255514 70.43063575 27.80289005 72 30 C72.1875 32.6875 72.1875 32.6875 72 35 C65.80138093 35.67012098 60.64376389 33.24947173 55 31 C55 30.34 55 29.68 55 29 C30.15794118 28.43711347 9.17114989 30.09327135 -13 42 C-14.03125 42.474375 -15.0625 42.94875 -16.125 43.4375 C-20.28743005 45.69969025 -23.58996757 48.72991461 -27.0859375 51.87890625 C-27.80007812 52.51699219 -28.51421875 53.15507812 -29.25 53.8125 C-29.91515625 54.41707031 -30.5803125 55.02164063 -31.265625 55.64453125 C-33 57 -33 57 -35 57 C-35.04125 57.721875 -35.0825 58.44375 -35.125 59.1875 C-36.16857587 62.54185101 -37.76410845 63.42237701 -40.42724609 65.55249023 C-43.03834676 67.95565942 -44.58210389 70.83854902 -46.25 73.9375 C-46.58773437 74.53240234 -46.92546875 75.12730469 -47.2734375 75.74023438 C-50.66371115 81.84673121 -52.21431701 87.47982879 -53.125 94.375 C-53.29257812 95.62023437 -53.46015625 96.86546875 -53.6328125 98.1484375 C-53.75398438 99.08945313 -53.87515625 100.03046875 -54 101 C-54.66 101 -55.32 101 -56 101 C-55.17019018 80.29624495 -45.55492553 64.9659835 -30.875 50.875 C-7.00746797 29.928668 22.21096608 24.67514501 53 25 C28.42937661 11.4138906 2.10654989 5.01782607 -25.72021484 3.23364258 C-27.89896535 3.01035448 -29.89361041 2.5887368 -32 2 C-32 1.34 -32 0.68 -32 0 C-7.39489987 -2.3235845 -7.39489987 -2.3235845 0 0 Z " fill="#248E32" transform="translate(74,77)"/>
<path d="M0 0 C2.97748278 1.27995449 5.05463554 2.0051543 8.3125 2.3125 C12.88804747 3.16556817 16.42112844 5.01605774 20 8 C20 8.66 20 9.32 20 10 C20.969375 10.28875 21.93875 10.5775 22.9375 10.875 C26 12 26 12 27 14 C22.19075596 13.47764765 18.42657252 12.49878007 14.0625 10.4375 C-1.95572375 3.23535154 -23.18315454 -6.24561643 -41 -3 C-39.96101562 -2.5153125 -38.92203125 -2.030625 -37.8515625 -1.53125 C-14.44980039 9.61458746 3.28378255 29.72272263 12.17578125 54.2421875 C13.22193654 57.47575841 14.14687951 60.71056426 15 64 C15.226875 64.86882812 15.45375 65.73765625 15.6875 66.6328125 C18.21525596 78.11303747 19.47003366 93.6349628 13 104 C12.01 104.33 11.02 104.66 10 105 C10.66 102.69 11.32 100.38 12 98 C12.66 98 13.32 98 14 98 C14.63197393 79.66546396 13.00140372 64.40398064 5.953125 47.44140625 C5 45 5 45 5 43 C4.34 43 3.68 43 3 43 C2.443125 41.80375 1.88625 40.6075 1.3125 39.375 C-0.12020571 36.47877771 -1.6311856 34.06374934 -3.75 31.625 C-6 29 -6 29 -6 27 C-6.99 26.67 -7.98 26.34 -9 26 C-9 25.34 -9 24.68 -9 24 C-9.5775 23.7525 -10.155 23.505 -10.75 23.25 C-13.31119917 21.82711157 -14.9333048 20.0666952 -17 18 C-17.804375 17.525625 -18.60875 17.05125 -19.4375 16.5625 C-22 15 -22 15 -24.4375 12.5 C-27.14250777 9.86096803 -29.63121307 8.64855531 -33 7 C-33.59167969 6.36707031 -34.18335938 5.73414063 -34.79296875 5.08203125 C-37.43056894 2.59381727 -39.88396396 1.56714454 -43.25 0.25 C-44.32765625 -0.17796875 -45.4053125 -0.6059375 -46.515625 -1.046875 C-47.74539062 -1.51867187 -47.74539062 -1.51867187 -49 -2 C-49 -3.32 -49 -4.64 -49 -6 C-32.21590727 -8.67854247 -15.51680971 -7.08438447 0 0 Z " fill="#2A9C53" transform="translate(294,140)"/>
<path d="M0 0 C1.39456452 0.00667256 2.78911118 0.01863093 4.18359375 0.03515625 C5.2499707 0.04192383 5.2499707 0.04192383 6.33789062 0.04882812 C8.09899388 0.06064761 9.86005411 0.07858362 11.62109375 0.09765625 C11.62109375 1.41765625 11.62109375 2.73765625 11.62109375 4.09765625 C10.65171875 4.63390625 9.68234375 5.17015625 8.68359375 5.72265625 C1.97655821 9.57273953 -3.96449746 13.54076302 -9.37890625 19.09765625 C-10.55425862 19.92763173 -11.74264665 20.73936235 -12.94140625 21.53515625 C-16.36567216 23.89442369 -18.16781816 26.55991531 -20.37890625 30.09765625 C-21.18328125 30.86078125 -21.98765625 31.62390625 -22.81640625 32.41015625 C-26.15633899 35.91301253 -28.18541087 39.81333974 -30.37890625 44.09765625 C-31.03890625 44.09765625 -31.69890625 44.09765625 -32.37890625 44.09765625 C-32.60578125 44.88140625 -32.83265625 45.66515625 -33.06640625 46.47265625 C-34.14971159 49.46464243 -35.3479493 52.04343425 -36.81640625 54.84765625 C-45.27155303 71.45865259 -45.24585817 90.44549902 -40.37890625 108.09765625 C-40.0311616 109.76137574 -39.69287267 111.42723296 -39.37890625 113.09765625 C-40.03890625 113.09765625 -40.69890625 113.09765625 -41.37890625 113.09765625 C-44.5960032 106.08177324 -47.17692737 99.8536452 -47.37890625 92.09765625 C-47.42917969 91.29328125 -47.47945313 90.48890625 -47.53125 89.66015625 C-48.07899262 74.93683462 -43.84086652 62.08874892 -37.37890625 49.09765625 C-36.79625 47.916875 -36.21359375 46.73609375 -35.61328125 45.51953125 C-27.32251163 29.46083333 -15.18619142 18.23218204 -0.64453125 7.83984375 C1.70350096 6.29652805 1.70350096 6.29652805 2.62109375 4.09765625 C-1.69318852 5.0270736 -6.004965 5.96765514 -10.31640625 6.91015625 C-11.52876953 7.17119141 -12.74113281 7.43222656 -13.99023438 7.70117188 C-19.97762662 9.01547749 -25.80425213 10.40093675 -31.55664062 12.53515625 C-34.18740708 13.34722564 -36.65530318 13.30716418 -39.37890625 13.09765625 C-39.37890625 12.43765625 -39.37890625 11.77765625 -39.37890625 11.09765625 C-36.3186948 9.94564528 -33.25536581 8.80215722 -30.19140625 7.66015625 C-29.32708984 7.33466797 -28.46277344 7.00917969 -27.57226562 6.67382812 C-26.73115234 6.36123047 -25.89003906 6.04863281 -25.0234375 5.7265625 C-24.25362549 5.4385376 -23.48381348 5.1505127 -22.69067383 4.85375977 C-18.80478712 3.5828134 -16.32834928 2.78117524 -12.37890625 4.09765625 C-12.37890625 3.43765625 -12.37890625 2.77765625 -12.37890625 2.09765625 C-10.328125 1.86979167 -8.27734375 1.64192708 -6.2265625 1.4140625 C-3.16123928 0.889134 -3.73008126 0.10780582 0 0 Z " fill="#19A145" transform="translate(119.37890625,131.90234375)"/>
<path d="M0 0 C21.39369193 -0.88729598 40.66449263 5.35518734 57.0625 19.0625 C66.63811632 28.01494129 73.17229433 39.38318273 79 51 C79.53367187 50.07960937 80.06734375 49.15921875 80.6171875 48.2109375 C84.62187506 41.37705863 88.75790484 34.67081805 93.3125 28.1875 C93.72032715 27.59565918 94.1281543 27.00381836 94.54833984 26.39404297 C96.71196013 23.36923611 98.44868992 21.27587113 102 20 C102 19.34 102 18.68 102 18 C103.8849586 16.4798721 105.75054036 15.10544209 107.75 13.75 C108.33837646 13.34958496 108.92675293 12.94916992 109.53295898 12.53662109 C126.42524042 1.26303153 141.12611317 -0.51727282 161 0 C161.33 0.99 161.66 1.98 162 3 C161.36610352 2.98428955 160.73220703 2.9685791 160.07910156 2.95239258 C140.19525812 2.52445298 124.05179538 4.11892963 108 17 C107.34 17 106.68 17 106 17 C106 17.66 106 18.32 106 19 C104.88337844 20.15151598 103.75941617 21.29641033 102.609375 22.41455078 C95.64581327 29.27458869 90.64735426 36.47735255 86 45.0625 C85.41605469 46.11888672 84.83210938 47.17527344 84.23046875 48.26367188 C82.80991388 50.83697209 81.40009532 53.41552918 80 56 C77 55 77 55 75.23828125 51.7890625 C74.58995279 50.40402011 73.94842508 49.0157809 73.3125 47.625 C68.88016394 38.35174614 63.63133099 30.01257443 56 23 C54.948125 21.824375 54.948125 21.824375 53.875 20.625 C41.28095105 9.12608574 25.63665527 4.27477375 9 2.875 C7.55173828 2.74544922 7.55173828 2.74544922 6.07421875 2.61328125 C3.71658324 2.40319492 1.35860143 2.19889508 -1 2 C-0.67 1.34 -0.34 0.68 0 0 Z " fill="#219A4C" transform="translate(113,5)"/>
<path d="M0 0 C29.62730111 -0.71219474 56.52182329 11.84674272 79.31884766 29.88183594 C81.14683929 31.32380988 83.00398593 32.72378776 84.875 34.109375 C85.205 32.789375 85.535 31.469375 85.875 30.109375 C86.205 32.749375 86.535 35.389375 86.875 38.109375 C84.11095005 37.69988612 82.82039086 37.06462584 80.625 35.265625 C77.7266421 32.99304892 74.87364342 31.46036742 71.5625 29.859375 C70.49386719 29.33859375 69.42523438 28.8178125 68.32421875 28.28125 C67.51597656 27.89453125 66.70773438 27.5078125 65.875 27.109375 C65.875 26.119375 65.875 25.129375 65.875 24.109375 C64.699375 23.985625 64.699375 23.985625 63.5 23.859375 C62.63375 23.611875 61.7675 23.364375 60.875 23.109375 C60.61332031 22.50351563 60.35164063 21.89765625 60.08203125 21.2734375 C55.53248079 13.11663829 38.71149614 9.88995981 30.3203125 7.37109375 C29.56451904 7.15727051 28.80872559 6.94344727 28.0300293 6.72314453 C26.10085166 6.17369935 24.18763831 5.56890627 22.27734375 4.95703125 C16.44137017 3.53639433 10.38121282 3.81224418 4.41137695 3.84863281 C2.31367201 3.859369 0.21681983 3.84868488 -1.88085938 3.8359375 C-3.23437686 3.83725899 -4.58789382 3.83982117 -5.94140625 3.84375 C-7.15256104 3.84600586 -8.36371582 3.84826172 -9.61157227 3.85058594 C-21.7031224 4.74121502 -34.51515032 10.85950805 -44.125 18.109375 C-44.83269531 18.604375 -45.54039063 19.099375 -46.26953125 19.609375 C-49.59921296 21.98154156 -52.43378497 24.28786154 -55 27.484375 C-55.70125 28.350625 -56.4025 29.216875 -57.125 30.109375 C-57.785 30.109375 -58.445 30.109375 -59.125 30.109375 C-55.18486774 20.1541296 -41.2615382 11.2916652 -31.98535156 7.15527344 C-21.1461948 2.58833939 -11.7360983 0.41076344 0 0 Z " fill="#2BA659" transform="translate(79.125,47.890625)"/>
<path d="M0 0 C5.3245185 4.34575764 9.95657376 9.20081562 14.16064453 14.63964844 C11.16064453 14.63964844 11.16064453 14.63964844 8.88330078 12.47949219 C8.00544922 11.52171875 7.12759766 10.56394531 6.22314453 9.57714844 C-8.4047743 -5.63139826 -28.84926328 -10.34053925 -49.33935547 -10.86035156 C-60.48256221 -10.91021643 -70.38251895 -7.94555266 -80.83935547 -4.36035156 C-81.59297363 -4.11478516 -82.3465918 -3.86921875 -83.12304688 -3.61621094 C-92.67712378 -0.49949117 -100.6945895 3.67299911 -108.83935547 9.63964844 C-110.60928162 10.84931019 -112.3800741 12.05770564 -114.15185547 13.26464844 C-121.80623413 18.63006812 -121.80623413 18.63006812 -127.83935547 25.63964844 C-130.50229562 27.41494187 -132.79640621 28.62533202 -135.83935547 29.63964844 C-135.50935547 27.32964844 -135.17935547 25.01964844 -134.83935547 22.63964844 C-134.17935547 22.63964844 -133.51935547 22.63964844 -132.83935547 22.63964844 C-132.17935547 21.31964844 -131.51935547 19.99964844 -130.83935547 18.63964844 C-130.50935547 19.62964844 -130.17935547 20.61964844 -129.83935547 21.63964844 C-128.623125 20.57037109 -128.623125 20.57037109 -127.38232422 19.47949219 C-120.54268985 13.53510337 -113.69681511 8.21063012 -105.83935547 3.63964844 C-105.01564453 3.14078125 -104.19193359 2.64191406 -103.34326172 2.12792969 C-73.15102073 -15.3808128 -29.8887601 -22.10514618 0 0 Z " fill="#2BA75B" transform="translate(351.83935546875,59.3603515625)"/>
<path d="M0 0 C4.51650194 0.53135317 7.42058156 2.23408575 11 5 C11.495 6.485 11.495 6.485 12 8 C7.68383745 8.28148886 4.52078743 7.94111378 0.4296875 6.51171875 C-5.11750692 4.7963274 -10.22351918 4.53913006 -16 4.625 C-17.5005896 4.64022705 -17.5005896 4.64022705 -19.03149414 4.65576172 C-37.40616666 5.03323329 -53.77843605 9.28841936 -70 18 C-71.03125 18.474375 -72.0625 18.94875 -73.125 19.4375 C-77.28743005 21.69969025 -80.58996757 24.72991461 -84.0859375 27.87890625 C-84.80007812 28.51699219 -85.51421875 29.15507812 -86.25 29.8125 C-86.91515625 30.41707031 -87.5803125 31.02164063 -88.265625 31.64453125 C-90 33 -90 33 -92 33 C-92.04125 33.721875 -92.0825 34.44375 -92.125 35.1875 C-93.16857587 38.54185101 -94.76410845 39.42237701 -97.42724609 41.55249023 C-100.03834676 43.95565942 -101.58210389 46.83854902 -103.25 49.9375 C-103.58773437 50.53240234 -103.92546875 51.12730469 -104.2734375 51.74023438 C-107.66371115 57.84673121 -109.21431701 63.47982879 -110.125 70.375 C-110.29257813 71.62023437 -110.46015625 72.86546875 -110.6328125 74.1484375 C-110.75398438 75.08945313 -110.87515625 76.03046875 -111 77 C-111.66 77 -112.32 77 -113 77 C-112.17019018 56.29624495 -102.55492553 40.9659835 -87.875 26.875 C-69.51294852 10.76032061 -45.31740502 1.83979026 -21 1 C-19.95585938 0.96003906 -18.91171875 0.92007813 -17.8359375 0.87890625 C-10.65810922 0.73602208 -4.0021198 1.42838193 3 3 C2.01 2.01 1.02 1.02 0 0 Z " fill="#2AB45D" transform="translate(131,101)"/>
<path d="M0 0 C29.88459175 -1.43888775 56.37331662 6.51765332 79.1875 26.4375 C80.80517352 27.94395846 82.41032256 29.46402788 84 31 C84.639375 31.61359375 85.27875 32.2271875 85.9375 32.859375 C95.59007985 42.94287359 101.11671776 57.3943764 101.1875 71.25 C101.14052081 72.83386983 101.08410038 74.41766697 101 76 C100.34 76 99.68 76 99 76 C98.82984375 74.74445313 98.6596875 73.48890625 98.484375 72.1953125 C95.71771046 52.69617253 89.4628287 37.99982451 73.80078125 25.203125 C61.22546952 15.89440528 46.89088441 9.54272068 32 5 C31.13503906 4.73316406 30.27007812 4.46632813 29.37890625 4.19140625 C18.10356142 1.35791405 4.70703329 2.19852362 -6.5546875 4.5625 C-9.08646858 5.01547042 -11.43366474 5.07358667 -14 5 C-10.7897878 1.7897878 -7.62539686 2.01025241 -3.1875 1.9375 C-2.135625 1.958125 -1.08375 1.97875 0 2 C0 1.34 0 0.68 0 0 Z " fill="#2A9F53" transform="translate(262,101)"/>
<path d="M0 0 C2.60003021 5.20006041 2.96221688 8.36486163 2.5625 14.1875 C1.98606733 23.70991507 1.91111339 33.21431714 1.9375 42.75 C1.9393631 43.45619476 1.9412262 44.16238953 1.94314575 44.88998413 C1.95529447 48.92670257 1.97466371 52.96334414 2 57 C2.7425 56.814375 3.485 56.62875 4.25 56.4375 C7.08604279 55.98631137 8.28737897 56.29966065 11 57 C13.47819045 57.01587669 15.91722847 56.97734123 18.390625 56.87890625 C19.09523865 56.85529526 19.79985229 56.83168427 20.52581787 56.80735779 C22.7674328 56.73103023 25.00867496 56.64687421 27.25 56.5625 C28.7734195 56.5092483 30.29685698 56.45650812 31.8203125 56.40429688 C35.54710155 56.27545752 39.27359667 56.13959768 43 56 C43.33 54.35 43.66 52.7 44 51 C45.5 52.125 45.5 52.125 47 54 C47.25 57.125 47.25 57.125 47 60 C45.45984551 61.54015449 44.03931712 61.12718007 41.89501953 61.12939453 C41.02386505 61.13254669 40.15271057 61.13569885 39.25515747 61.13894653 C38.30728363 61.1369223 37.35940979 61.13489807 36.3828125 61.1328125 C35.41471649 61.13376923 34.44662048 61.13472595 33.44918823 61.13571167 C31.39630061 61.13639371 29.34341085 61.13453776 27.29052734 61.13037109 C24.14545844 61.12503471 21.00053311 61.13030931 17.85546875 61.13671875 C15.86458302 61.13605775 13.87369737 61.13477612 11.8828125 61.1328125 C10.93898712 61.13483673 9.99516174 61.13686096 9.0227356 61.13894653 C7.70654739 61.13421829 7.70654739 61.13421829 6.36376953 61.12939453 C5.5917923 61.12859894 4.81981506 61.12780334 4.02444458 61.12698364 C2 61 2 61 -1 60 C-1.02563852 53.70524987 -1.04298616 47.41051352 -1.05493164 41.11572266 C-1.05991869 38.98030087 -1.06671072 36.84488242 -1.07543945 34.70947266 C-1.12168415 23.09389217 -1.12726999 11.57262742 0 0 Z " fill="#218B43" transform="translate(168,216)"/>
<path d="M0 0 C1.98 0 3.96 0 6 0 C5.10698344 1.06486855 4.2104053 2.12675041 3.3125 3.1875 C2.81363281 3.77917969 2.31476563 4.37085938 1.80078125 4.98046875 C-1.27965198 8.43509778 -4.61362171 11.63036723 -7.9453125 14.83984375 C-20.46340011 26.96526864 -29.94082286 40.02008613 -38.95703125 54.921875 C-39.71040771 56.16420898 -39.71040771 56.16420898 -40.47900391 57.43164062 C-41.54159802 59.2259408 -42.5728127 61.0390309 -43.57958984 62.86523438 C-44.09344238 63.78111328 -44.60729492 64.69699219 -45.13671875 65.640625 C-45.59135498 66.47625977 -46.04599121 67.31189453 -46.5144043 68.17285156 C-47.00465088 68.77581055 -47.49489746 69.37876953 -48 70 C-49.32 70 -50.64 70 -52 70 C-51 67 -51 67 -48 65 C-47.74245796 62.97185642 -47.48911634 60.94234437 -47.3046875 58.90625 C-47 57 -47 57 -45.625 55.0625 C-44 54 -44 54 -41 53 C-39.85367983 51.39687599 -39.85367983 51.39687599 -38.95703125 49.40234375 C-38.60576172 48.68369141 -38.25449219 47.96503906 -37.89257812 47.22460938 C-37.53615234 46.46986328 -37.17972656 45.71511719 -36.8125 44.9375 C-36.44447266 44.17888672 -36.07644531 43.42027344 -35.69726562 42.63867188 C-34.78914503 40.76346181 -33.89338985 38.88227267 -33 37 C-32.01 37 -31.02 37 -30 37 C-29.9175 36.29875 -29.835 35.5975 -29.75 34.875 C-28.06516038 28.41644814 -24.1401832 25.05589595 -18.8046875 21.4921875 C-16.7994066 19.83414139 -15.99134397 18.38126953 -15 16 C-14.34 16 -13.68 16 -13 16 C-12.71125 15.05125 -12.4225 14.1025 -12.125 13.125 C-11 10 -11 10 -9 8 C-8.34 8.33 -7.68 8.66 -7 9 C-6.67 8.01 -6.34 7.02 -6 6 C-4.35360035 4.64172029 -2.68704193 3.30745749 -1 2 C-0.67 1.34 -0.34 0.68 0 0 Z " fill="#0B8A22" transform="translate(131,176)"/>
<path d="M0 0 C6.72505081 0.16439013 10.21055351 1.21055351 15 6 C13.4375 6.75 13.4375 6.75 11 7 C8.49713591 5.86915563 6.32992278 4.47860484 4 3 C2.96902626 6.09292122 2.94454778 7.90990925 3.0859375 11.1328125 C3.12920166 12.22376221 3.17246582 13.31471191 3.21704102 14.4387207 C3.26916748 15.65519287 3.32129395 16.87166504 3.375 18.125 C3.47805862 20.85019586 3.5789556 23.57536604 3.67578125 26.30078125 C3.70242355 27.04750595 3.72906586 27.79423065 3.7565155 28.56358337 C4.60675726 53.12297116 5.05981064 77.72018177 5.17623901 102.29403687 C5.18368958 103.71220937 5.19432121 105.13036907 5.20828247 106.54849243 C5.22577839 108.46846073 5.22858228 110.38854666 5.23046875 112.30859375 C5.23457764 113.36876709 5.23868652 114.42894043 5.24291992 115.52124023 C5 118 5 118 3 120 C2.97716446 119.08498718 2.95432892 118.16997437 2.93080139 117.22723389 C2.7118598 108.46509448 2.49144597 99.70299349 2.26950932 90.94092941 C2.15554758 86.43980516 2.04209186 81.93866953 1.92993164 77.4375 C1.65441761 66.39339928 1.36596574 55.34973364 1.06247711 44.30636597 C1.00234408 42.08653241 0.94470386 39.86664893 0.88787842 37.64672852 C0.78850998 33.79020187 0.67468739 29.93418657 0.55859375 26.078125 C0.53177017 24.98328796 0.50494659 23.88845093 0.47731018 22.76043701 C0.29005213 17.0059657 -0.30682046 11.72991357 -1.77745056 6.15350342 C-2.05109535 3.50557501 -1.36946376 2.23674249 0 0 Z " fill="#1AA145" transform="translate(210,152)"/>
<path d="M0 0 C1.71253527 0.05393368 3.4228674 0.18135927 5.12890625 0.33984375 C6.16337891 0.43330078 7.19785156 0.52675781 8.26367188 0.62304688 C9.35228516 0.72681641 10.44089844 0.83058594 11.5625 0.9375 C13.2012207 1.08735352 13.2012207 1.08735352 14.87304688 1.24023438 C17.58251057 1.48870048 20.29141348 1.74217463 23 2 C23 2.33 23 2.66 23 3 C19.04 3 15.08 3 11 3 C10.67 5.64 10.34 8.28 10 11 C10.556875 11.0825 11.11375 11.165 11.6875 11.25 C14.75201816 12.24389778 16.64029887 13.83162599 19 16 C19.33 16.99 19.66 17.98 20 19 C20.60328125 19.13664062 21.2065625 19.27328125 21.828125 19.4140625 C24.88895804 20.23982681 25.85980523 21.87897358 27.75 24.375 C28.36359375 25.16648437 28.9771875 25.95796875 29.609375 26.7734375 C31 29 31 29 31 32 C31.66 32 32.32 32 33 32 C35.76249036 34.19436895 36.67423907 36.35821409 37.6875 39.6875 C37.93886719 40.49574219 38.19023437 41.30398437 38.44921875 42.13671875 C38.63097656 42.75160156 38.81273437 43.36648437 39 44 C35.232678 42.744226 34.69485644 41.41082385 32.51171875 38.1484375 C27.91010783 31.63904688 22.50033926 26.16153151 16.8125 20.625 C15.83066639 19.65827652 14.84954355 18.69083063 13.86914062 17.72265625 C12.07044397 15.94811297 10.26720006 14.17874004 8.46020508 12.41259766 C7.6483374 11.61644043 6.83646973 10.8202832 6 10 C5.09854248 9.12134277 4.19708496 8.24268555 3.26831055 7.33740234 C1.2423059 5.24968644 0.08559712 3.66464747 -1 1 C-0.67 0.67 -0.34 0.34 0 0 Z " fill="#20A34C" transform="translate(110,6)"/>
<path d="M0 0 C21.39369193 -0.88729598 40.66449263 5.35518734 57.0625 19.0625 C64.97073618 26.42924868 76.34092601 39.48655653 77.3125 50.5625 C77.209375 51.366875 77.10625 52.17125 77 53 C74.18737957 49.55367188 72.25781515 45.75440391 70.25 41.8125 C66.11593277 33.9025173 62.08336172 26.36938471 54 22 C53.443125 21.236875 52.88625 20.47375 52.3125 19.6875 C42.12893206 7.85254267 23.81105632 4.12117164 9 2.875 C7.55173828 2.74544922 7.55173828 2.74544922 6.07421875 2.61328125 C3.71658324 2.40319492 1.35860143 2.19889508 -1 2 C-0.67 1.34 -0.34 0.68 0 0 Z " fill="#27A75D" transform="translate(113,5)"/>
<path d="M0 0 C0 0.99 0 1.98 0 3 C-0.94875 3.23332031 -1.8975 3.46664062 -2.875 3.70703125 C-17.89966354 7.64922036 -32.75957598 13.84268812 -46 22 C-44.68 22 -43.36 22 -42 22 C-42 22.66 -42 23.32 -42 24 C-46.62 24.66 -51.24 25.32 -56 26 C-53 20 -53 20 -50.5 18.6875 C-49.2625 18.3471875 -49.2625 18.3471875 -48 18 C-47.01 17.67 -46.02 17.34 -45 17 C-45 16.34 -45 15.68 -45 15 C-43.741875 14.608125 -42.48375 14.21625 -41.1875 13.8125 C-36.51010361 12.26072227 -32.11233692 10.27534409 -27.64453125 8.20703125 C-17.33199094 3.50012585 -17.33199094 3.50012585 -12 4 C-12 3.34 -12 2.68 -12 2 C-7.8803623 0.70756464 -4.33168317 -0.26252625 0 0 Z " fill="#108C35" transform="translate(304,79)"/>
<path d="M0 0 C7.03787373 1.52487264 14.0203196 3.22850751 21 5 C21 5.66 21 6.32 21 7 C21.99 6.67 22.98 6.34 24 6 C24 6.66 24 7.32 24 8 C27.3 8.66 30.6 9.32 34 10 C34 10.66 34 11.32 34 12 C35.32 12.33 36.64 12.66 38 13 C38 13.66 38 14.32 38 15 C38.598125 15.103125 39.19625 15.20625 39.8125 15.3125 C42.38994819 16.12255514 43.43063575 16.80289005 45 19 C45.1875 21.6875 45.1875 21.6875 45 24 C38.80138093 24.67012098 33.64376389 22.24947173 28 20 C28 19.67 28 19.34 28 19 C32.29 19.33 36.58 19.66 41 20 C37.39339742 16.08661596 37.39339742 16.08661596 33 15 C33.495 15.99 33.495 15.99 34 17 C27.3713391 16.37465463 27.3713391 16.37465463 25.6875 14.67578125 C23.26627453 12.27136985 20.34748089 10.97423656 17.3125 9.5 C16.68907715 9.19247803 16.0656543 8.88495605 15.42333984 8.56811523 C11.02501948 6.42606126 6.62832913 4.5736319 2 3 C2 2.34 2 1.68 2 1 C1.34 0.67 0.68 0.34 0 0 Z " fill="#279848" transform="translate(101,88)"/>
<path d="M0 0 C6.32369667 -0.09481898 12.43416363 0.22471975 18.69921875 1.07421875 C18.69921875 1.73421875 18.69921875 2.39421875 18.69921875 3.07421875 C17.76650146 3.09403809 16.83378418 3.11385742 15.87280273 3.13427734 C12.3855751 3.21274918 8.89874813 3.29945389 5.41186523 3.39160156 C3.90771252 3.42969364 2.40347483 3.46457967 0.89916992 3.49609375 C-1.27325648 3.5421777 -3.4451078 3.60009529 -5.6171875 3.66015625 C-6.92115479 3.69157715 -8.22512207 3.72299805 -9.56860352 3.75537109 C-21.79967314 4.80029665 -34.55704275 10.72334334 -44.30078125 18.07421875 C-45.00847656 18.56921875 -45.71617188 19.06421875 -46.4453125 19.57421875 C-49.77499421 21.94638531 -52.60956622 24.25270529 -55.17578125 27.44921875 C-55.87703125 28.31546875 -56.57828125 29.18171875 -57.30078125 30.07421875 C-57.96078125 30.07421875 -58.62078125 30.07421875 -59.30078125 30.07421875 C-55.36064899 20.11897335 -41.43731945 11.25650895 -32.16113281 7.12011719 C-21.28121384 2.53600853 -11.80413793 0.26541849 0 0 Z " fill="#3FC575" transform="translate(79.30078125,47.92578125)"/>
<path d="M0 0 C0.66 0 1.32 0 2 0 C3.53731548 2.09606472 4.93858582 4.17476451 6.3125 6.375 C6.71621826 7.01622803 7.11993652 7.65745605 7.53588867 8.31811523 C18.62156352 26.13589103 25.90048777 48.45741213 21.20703125 69.56640625 C20.30239269 72.22486515 19.48687628 74.61801426 18 77 C16.515 77.495 16.515 77.495 15 78 C15.66 75.69 16.32 73.38 17 71 C17.66 71 18.32 71 19 71 C19.63197393 52.66546396 18.00140372 37.40398064 10.953125 20.44140625 C10 18 10 18 10 16 C9.34 16 8.68 16 8 16 C7.443125 14.824375 6.88625 13.64875 6.3125 12.4375 C4.24872155 8.28775193 1.77796448 4.70395264 -1 1 C-0.67 0.67 -0.34 0.34 0 0 Z " fill="#1CA15D" transform="translate(289,167)"/>
<path d="M0 0 C0.33 0.66 0.66 1.32 1 2 C-0.01816915 4.22799366 -1.08888624 6.34834116 -2.25 8.5 C-11.38818031 26.10397106 -12.23086253 45.02795972 -7 64 C-6.65225535 65.66371949 -6.31396642 67.32957671 -6 69 C-6.66 69 -7.32 69 -8 69 C-11.21709695 61.98411699 -13.79802112 55.75598895 -14 48 C-14.05027344 47.195625 -14.10054688 46.39125 -14.15234375 45.5625 C-14.70225227 30.78095901 -10.37305166 18.08395184 -4 5 C-3.46052734 3.81664062 -3.46052734 3.81664062 -2.91015625 2.609375 C-2 1 -2 1 0 0 Z " fill="#1AAE52" transform="translate(86,176)"/>
<path d="M0 0 C2.66666667 0.66666667 5.33333333 1.33333333 8 2 C8.061875 2.928125 8.061875 2.928125 8.125 3.875 C8.41375 4.57625 8.7025 5.2775 9 6 C11.88318775 7.18335395 11.88318775 7.18335395 15 8 C15.99 8.66 16.98 9.32 18 10 C20.88214887 9.11785113 20.88214887 9.11785113 23 8 C23.33 10.31 23.66 12.62 24 15 C25.32 15.33 26.64 15.66 28 16 C28 11.71 28 7.42 28 3 C28.33 3 28.66 3 29 3 C30.03590199 8.05002222 30.10251672 12.87416389 30 18 C30.66 18 31.32 18 32 18 C31.67 19.65 31.34 21.3 31 23 C26.26626278 21.44308643 22.78546111 18.79399523 18.875 15.8125 C13.37174779 11.67200308 7.83507966 7.90543211 1.87890625 4.4375 C1.25886719 3.963125 0.63882812 3.48875 0 3 C0 2.01 0 1.02 0 0 Z " fill="#13A143" transform="translate(331,159)"/>
<path d="M0 0 C0 0.66 0 1.32 0 2 C-2.03842073 3.81192953 -3.81068834 4.9302536 -6.375 5.875 C-10.60321943 7.68709404 -13.7086383 10.83656759 -17.08984375 13.8828125 C-17.80269531 14.51960937 -18.51554687 15.15640625 -19.25 15.8125 C-19.91515625 16.41707031 -20.5803125 17.02164063 -21.265625 17.64453125 C-23 19 -23 19 -25 19 C-25.04125 19.721875 -25.0825 20.44375 -25.125 21.1875 C-26.16857587 24.54185101 -27.76410845 25.42237701 -30.42724609 27.55249023 C-33.03834676 29.95565942 -34.58210389 32.83854902 -36.25 35.9375 C-36.58773437 36.53240234 -36.92546875 37.12730469 -37.2734375 37.74023438 C-40.66371115 43.84673121 -42.21431701 49.47982879 -43.125 56.375 C-43.29257812 57.62023437 -43.46015625 58.86546875 -43.6328125 60.1484375 C-43.75398438 61.08945313 -43.87515625 62.03046875 -44 63 C-44.66 63 -45.32 63 -46 63 C-45.16879448 42.2614224 -35.52947624 26.860532 -20.75 12.8125 C-6.2565 0 -6.2565 0 0 0 Z " fill="#1C9A4D" transform="translate(64,115)"/>
<path d="M0 0 C2.95857409 -0.05379226 5.91617721 -0.09357093 8.875 -0.125 C9.71675781 -0.14175781 10.55851562 -0.15851562 11.42578125 -0.17578125 C12.23144531 -0.18222656 13.03710938 -0.18867187 13.8671875 -0.1953125 C14.61081543 -0.20578613 15.35444336 -0.21625977 16.12060547 -0.22705078 C18 0 18 0 20 2 C19.27296875 2.63164062 18.5459375 3.26328125 17.796875 3.9140625 C8.15868267 12.43642384 -0.01131788 21.93878243 -8 32 C-8.99 31.67 -9.98 31.34 -11 31 C-9.7260411 28.96166576 -8.38938077 26.96147874 -7 25 C-6.34 25 -5.68 25 -5 25 C-4.7525 24.030625 -4.505 23.06125 -4.25 22.0625 C-3.8375 21.051875 -3.425 20.04125 -3 19 C-0.875 18.125 -0.875 18.125 1 18 C1.061875 17.4225 1.12375 16.845 1.1875 16.25 C2 14 2 14 4.375 12.125 C7.38061904 9.69187982 8.35131309 7.44725445 10 4 C10.99 3.34 11.98 2.68 13 2 C8.71 2 4.42 2 0 2 C0 1.34 0 0.68 0 0 Z " fill="#0B862B" transform="translate(254,7)"/>
<path d="M0 0 C1.32 0 2.64 0 4 0 C4.37513597 14.76446623 3.20116682 29.35526032 2 44.0625 C1.80668038 46.49018577 1.61396765 48.91791996 1.421875 51.34570312 C0.95490288 57.23104442 0.48047727 63.11574666 0 69 C-2.38900579 64.75665671 -2.10646259 61.1187933 -1.8125 56.375 C-1.76424072 55.4679834 -1.71598145 54.5609668 -1.66625977 53.62646484 C-0.67397471 36.0715087 0.70219277 18.53443786 2 1 C1.34 0.67 0.68 0.34 0 0 Z " fill="#29A239" transform="translate(170,151)"/>
<path d="M0 0 C0.66 0 1.32 0 2 0 C2.33 0.99 2.66 1.98 3 3 C3.78375 3.433125 4.5675 3.86625 5.375 4.3125 C9.43750083 6.92410768 10.51607309 10.54821926 12 15 C12.99 15 13.98 15 15 15 C15.81498562 16.6029053 16.62689927 18.20737278 17.4375 19.8125 C17.88996094 20.70582031 18.34242188 21.59914062 18.80859375 22.51953125 C20 25 20 25 21 28 C21.99 28 22.98 28 24 28 C24 29.32 24 30.64 24 32 C24.99 32 25.98 32 27 32 C27.66 34.31 28.32 36.62 29 39 C23.84088389 36.56063532 21.55325025 32.91778917 18.5 28.3125 C13.6839289 21.22504391 8.53649978 14.56873852 2.92578125 8.09106445 C1.54282578 6.45407524 0.2605574 4.7330016 -1 3 C-0.67 2.01 -0.34 1.02 0 0 Z " fill="#198F2F" transform="translate(264,192)"/>
<path d="M0 0 C0.66 0 1.32 0 2 0 C2 0.66 2 1.32 2 2 C1.34 2 0.68 2 0 2 C0.495 3.485 0.495 3.485 1 5 C0.27409668 5.17128418 -0.45180664 5.34256836 -1.19970703 5.51904297 C-4.50881242 6.30154098 -7.81690777 7.08823028 -11.125 7.875 C-12.83816406 8.27912109 -12.83816406 8.27912109 -14.5859375 8.69140625 C-15.69453125 8.95566406 -16.803125 9.21992188 -17.9453125 9.4921875 C-19.46922607 9.85352783 -19.46922607 9.85352783 -21.02392578 10.22216797 C-24.05502398 10.97479447 -24.05502398 10.97479447 -27.16748047 12.08642578 C-30.2572654 13.08297596 -32.77429894 13.15360481 -36 13 C-36 12.34 -36 11.68 -36 11 C-32.93978855 9.84798903 -29.87645956 8.70450097 -26.8125 7.5625 C-25.94818359 7.23701172 -25.08386719 6.91152344 -24.19335938 6.57617188 C-23.35224609 6.26357422 -22.51113281 5.95097656 -21.64453125 5.62890625 C-20.87471924 5.34088135 -20.10490723 5.05285645 -19.31176758 4.75610352 C-15.42588087 3.48515715 -12.94944303 2.68351899 -9 4 C-9 3.34 -9 2.68 -9 2 C-6.94921875 1.77213542 -4.8984375 1.54427083 -2.84765625 1.31640625 C-0.98859771 1.18113386 -0.98859771 1.18113386 0 0 Z " fill="#14A241" transform="translate(116,132)"/>
<path d="M0 0 C6.6589287 -0.14475932 9.8568466 2.95843338 14.5546875 7.43359375 C18.01733361 11.06771276 21.08522216 14.91738071 24 19 C23.34 19.66 22.68 20.32 22 21 C21.01 20.34 20.02 19.68 19 19 C19 18.34 19 17.68 19 17 C18.4225 16.7525 17.845 16.505 17.25 16.25 C14.68880083 14.82711157 13.0666952 13.0666952 11 11 C10.195625 10.525625 9.39125 10.05125 8.5625 9.5625 C4.52834491 7.10264934 1.50974571 4.52923713 0 0 Z " fill="#4FB26D" transform="translate(266,147)"/>
<path d="M0 0 C0 0.33 0 0.66 0 1 C-0.58789307 1.01981934 -1.17578613 1.03963867 -1.78149414 1.06005859 C-13.65045732 1.47903126 -25.254078 2.19293508 -37 4 C-39.76917577 4.40819995 -42.54034826 4.80010914 -45.3125 5.1875 C-47.16294922 5.45626953 -47.16294922 5.45626953 -49.05078125 5.73046875 C-52 6 -52 6 -54 5 C-54 4.34 -54 3.68 -54 3 C-37.6337812 -2.45540627 -16.97285485 -1.67156904 0 0 Z " fill="#139139" transform="translate(359,75)"/>
<path d="M0 0 C2.05357983 4.10715966 3.11899754 6.34940081 2.83813477 11.00048828 C2.77799698 12.04141632 2.71785919 13.08234436 2.65589905 14.15481567 C2.58511642 15.28192963 2.5143338 16.40904358 2.44140625 17.5703125 C2.37340317 18.72167694 2.30540009 19.87304138 2.2353363 21.05929565 C2.01625577 24.748196 1.78946144 28.43657694 1.5625 32.125 C1.41290439 34.62106341 1.26380931 37.11715688 1.11523438 39.61328125 C0.74930371 45.74254845 0.37703343 51.87140631 0 58 C-0.33 58 -0.66 58 -1 58 C-1.0249869 51.99007459 -1.04299384 45.98018037 -1.05493164 39.97021484 C-1.05991594 37.93179802 -1.06670579 35.89338468 -1.07543945 33.85498047 C-1.12273461 22.52083477 -1.08293156 11.29325472 0 0 Z " fill="#188824" transform="translate(168,216)"/>
<path d="M0 0 C1.98 0 3.96 0 6 0 C2.49089964 4.18439115 -1.08739296 8.1828224 -5 12 C-5.85464844 12.90492188 -5.85464844 12.90492188 -6.7265625 13.828125 C-7.33242187 14.46234375 -7.93828125 15.0965625 -8.5625 15.75 C-9.12066406 16.34296875 -9.67882812 16.9359375 -10.25390625 17.546875 C-12.17433878 19.14508731 -13.55989329 19.59420545 -16 20 C-15.67 18.68 -15.34 17.36 -15 16 C-14.34 16 -13.68 16 -13 16 C-12.71125 15.05125 -12.4225 14.1025 -12.125 13.125 C-11 10 -11 10 -9 8 C-8.34 8.33 -7.68 8.66 -7 9 C-6.67 8.01 -6.34 7.02 -6 6 C-4.35360035 4.64172029 -2.68704193 3.30745749 -1 2 C-0.67 1.34 -0.34 0.68 0 0 Z " fill="#0E8C26" transform="translate(131,176)"/>
<path d="M0 0 C8.02183804 7.19320861 12.48099156 19.52165473 14 30 C14.19845974 33.68503652 14.19582378 37.31561187 14 41 C13.34 41 12.68 41 12 41 C11.82984375 39.74445313 11.6596875 38.48890625 11.484375 37.1953125 C9.82343226 25.50213542 7.88379343 15.60055093 0.953125 5.7890625 C0 4 0 4 0 0 Z " fill="#259853" transform="translate(349,136)"/>
<path d="M0 0 C8.81823226 2.13344329 20.96233651 5.90195834 27 13 C24.03 12.505 24.03 12.505 21 12 C21 12.66 21 13.32 21 14 C18.14686115 13.04895372 16.2933814 12.31396957 14.21875 10.09375 C11.57498494 7.59892945 9.12432838 6.57038937 5.75 5.25 C4.67234375 4.82203125 3.5946875 4.3940625 2.484375 3.953125 C1.25460938 3.48132813 1.25460938 3.48132813 0 3 C0 2.01 0 1.02 0 0 Z " fill="#41A65F" transform="translate(245,135)"/>
<path d="M0 0 C0 1.32 0 2.64 0 4 C-1.010625 4.556875 -2.02125 5.11375 -3.0625 5.6875 C-5.77772654 7.22723212 -8.30070625 8.89781595 -10.8125 10.75 C-14 13 -14 13 -16 13 C-14.44499019 9.18315774 -11.96404505 6.80804268 -9 4 C-10.65 4.33 -12.3 4.66 -14 5 C-14.33 4.01 -14.66 3.02 -15 2 C-9.75614911 0.2520497 -5.52677733 -0.19392201 0 0 Z " fill="#2FAB4A" transform="translate(131,132)"/>
<path d="M0 0 C4.08331839 -0.02903892 8.1666102 -0.04681189 12.25 -0.0625 C13.98830078 -0.07506836 13.98830078 -0.07506836 15.76171875 -0.08789062 C16.87675781 -0.09111328 17.99179687 -0.09433594 19.140625 -0.09765625 C20.68024902 -0.10551147 20.68024902 -0.10551147 22.25097656 -0.11352539 C24.67625656 -0.01336951 26.68697361 0.30076922 29 1 C29 1.66 29 2.32 29 3 C27.91283691 2.98428955 27.91283691 2.98428955 26.80371094 2.96826172 C23.45251065 2.92614514 20.10136636 2.90049953 16.75 2.875 C15.61046875 2.85824219 14.4709375 2.84148437 13.296875 2.82421875 C6.55499125 2.78591259 0.24798691 3.2563222 -6.37011719 4.56689453 C-8.96546324 4.99431227 -11.37522388 5.07538367 -14 5 C-10.7897878 1.7897878 -7.62539686 2.01025241 -3.1875 1.9375 C-2.135625 1.958125 -1.08375 1.97875 0 2 C0 1.34 0 0.68 0 0 Z " fill="#2CAC50" transform="translate(262,101)"/>
<path d="M0 0 C6.53874382 0.57290396 12.30248101 2.19182815 18.5 4.3125 C19.39847656 4.60833984 20.29695313 4.90417969 21.22265625 5.20898438 C26.74765535 7.07075627 31.846609 9.27279658 37 12 C37 12.33 37 12.66 37 13 C32.50146075 12.67283351 28.96904308 12.139691 24.90625 10.15625 C19.72658147 7.77771629 14.42617905 6.2472597 8.9375 4.75 C7.97650391 4.481875 7.01550781 4.21375 6.02539062 3.9375 C3.68522282 3.28551295 1.3435199 2.63981202 -1 2 C-0.67 1.34 -0.34 0.68 0 0 Z " fill="#29AC62" transform="translate(98,50)"/>
<path d="M0 0 C0.33 0.66 0.66 1.32 1 2 C3.34907875 2.68931344 3.34907875 2.68931344 6.0625 3.125 C6.98160156 3.29257813 7.90070313 3.46015625 8.84765625 3.6328125 C9.91306641 3.81457031 9.91306641 3.81457031 11 4 C11 4.66 11 5.32 11 6 C12.32 6.33 13.64 6.66 15 7 C15 7.66 15 8.32 15 9 C15.8971875 9.1546875 15.8971875 9.1546875 16.8125 9.3125 C19.38994819 10.12255514 20.43063575 10.80289005 22 13 C22.1875 15.6875 22.1875 15.6875 22 18 C15.80138093 18.67012098 10.64376389 16.24947173 5 14 C5 13.67 5 13.34 5 13 C9.29 13.33 13.58 13.66 18 14 C14.31118782 10.27238715 14.31118782 10.27238715 10.109375 7.859375 C9.40039062 7.51132813 8.69140625 7.16328125 7.9609375 6.8046875 C7.23132813 6.45664063 6.50171875 6.10859375 5.75 5.75 C5.00492188 5.38648437 4.25984375 5.02296875 3.4921875 4.6484375 C1.66501913 3.75827855 -0.16701834 2.8781261 -2 2 C-1.34 1.34 -0.68 0.68 0 0 Z " fill="#1D9D47" transform="translate(124,94)"/>
<path d="M0 0 C2.70058773 2.52054855 4.40337783 4.69271121 6 8 C6.66 8.33 7.32 8.66 8 9 C8.144375 9.804375 8.28875 10.60875 8.4375 11.4375 C8.76502717 14.34440658 8.76502717 14.34440658 12 16 C14.64837034 20.50222958 13.83731218 24.05985813 13 29 C10.30193827 24.95290741 8.48312399 20.61943364 6.5 16.1875 C6.09652344 15.29740234 5.69304687 14.40730469 5.27734375 13.49023438 C3.28253871 9.04965351 1.41917299 4.6663025 0 0 Z " fill="#1F943F" transform="translate(151,53)"/>
<path d="M0 0 C13.20084145 -0.54750034 25.95584891 1.49813303 38 7 C38.495 7.99 38.495 7.99 39 9 C35.05348371 8.58015784 31.60454099 7.92747064 27.875 6.5625 C18.66319029 3.35089968 8.67133665 2.73649457 -1 2 C-0.67 1.34 -0.34 0.68 0 0 Z " fill="#45B87A" transform="translate(113,5)"/>
<path d="M0 0 C12.54430709 3.45422949 21.57578703 10.26093709 30 20 C30.33 20.99 30.66 21.98 31 23 C27.29209721 21.47470362 25.1922667 19.2425836 22.5 16.3125 C15.76824949 9.43137633 8.19764607 4.83004494 -1 2 C-0.67 1.34 -0.34 0.68 0 0 Z " fill="#2AA75B" transform="translate(335,52)"/>
<path d="M0 0 C0.495 1.485 0.495 1.485 1 3 C0.37657715 2.98428955 -0.2468457 2.9685791 -0.88916016 2.95239258 C-12.99584479 2.68803987 -24.27901563 2.58730438 -36 6 C-33.23250575 1.84875863 -30.79546579 1.67613901 -26.0625 0.5625 C-17.53889825 -0.87585779 -8.60767562 -0.22403854 0 0 Z " fill="#40BF65" transform="translate(274,5)"/>
<path d="M0 0 C4.75481646 0.57634139 7.97048212 2.55068521 12 5 C12 5.66 12 6.32 12 7 C13.4540625 7.433125 13.4540625 7.433125 14.9375 7.875 C18 9 18 9 19 11 C13.75520475 10.45534819 9.62110352 9.21864864 4.75 7.0625 C3.54859375 6.53785156 2.3471875 6.01320312 1.109375 5.47265625 C-2 4 -2 4 -5 2 C-2.69 2 -0.38 2 2 2 C1.34 1.34 0.68 0.68 0 0 Z " fill="#27974E" transform="translate(302,143)"/>
<path d="M0 0 C3.375 0.8125 3.375 0.8125 5.375 1.8125 C6.91168865 2.03717831 8.45468054 2.22046805 10 2.375 C10.81726563 2.45878906 11.63453125 2.54257813 12.4765625 2.62890625 C13.10304688 2.68949219 13.72953125 2.75007813 14.375 2.8125 C14.375 3.4725 14.375 4.1325 14.375 4.8125 C3.485 5.3075 3.485 5.3075 -7.625 5.8125 C-7.625 3.8125 -7.625 3.8125 -6.0625 1.625 C-3.625 -0.1875 -3.625 -0.1875 0 0 Z " fill="#11792C" transform="translate(27.625,74.1875)"/>
<path d="M0 0 C0.33 0.66 0.66 1.32 1 2 C1.66 2 2.32 2 3 2 C3 2.66 3 3.32 3 4 C3.66 4 4.32 4 5 4 C6.625 5.375 6.625 5.375 8 7 C8 7.66 8 8.32 8 9 C8.53625 9.0825 9.0725 9.165 9.625 9.25 C12.8352431 10.26376098 15.26292392 12.07160549 18 14 C17.01 14.495 17.01 14.495 16 15 C15.67 15.66 15.34 16.32 15 17 C12.72662933 15.39933082 10.45628343 13.79464807 8.1875 12.1875 C7.54490234 11.73568359 6.90230469 11.28386719 6.24023438 10.81835938 C5.61826172 10.37685547 4.99628906 9.93535156 4.35546875 9.48046875 C3.49924927 8.87561646 3.49924927 8.87561646 2.62573242 8.25854492 C0.93909864 6.9528538 -0.52469189 5.53783772 -2 4 C-1.34 3.67 -0.68 3.34 0 3 C0 2.01 0 1.02 0 0 Z " fill="#179D41" transform="translate(224,155)"/>
<path d="M0 0 C0 0.66 0 1.32 0 2 C-2.03842073 3.81192953 -3.81068834 4.9302536 -6.375 5.875 C-10.60321943 7.68709404 -13.7086383 10.83656759 -17.08984375 13.8828125 C-17.80269531 14.51960937 -18.51554687 15.15640625 -19.25 15.8125 C-19.91515625 16.41707031 -20.5803125 17.02164063 -21.265625 17.64453125 C-23 19 -23 19 -25 19 C-25.33 19.99 -25.66 20.98 -26 22 C-26.66 22 -27.32 22 -28 22 C-28.33 22.66 -28.66 23.32 -29 24 C-27.89399249 17.40761314 -21.89843174 13.32332363 -16.75390625 9.5859375 C-3.15403843 0 -3.15403843 0 0 0 Z " fill="#24A05C" transform="translate(64,115)"/>
<path d="M0 0 C11.385 0.99 11.385 0.99 23 2 C23 2.33 23 2.66 23 3 C19.04 3 15.08 3 11 3 C10.67 4.65 10.34 6.3 10 8 C9.01 8 8.02 8 7 8 C7 7.34 7 6.68 7 6 C4.35261084 4.5393715 3.10551666 4 0 4 C0 2.68 0 1.36 0 0 Z " fill="#0A923E" transform="translate(110,6)"/>
<path d="M0 0 C5.49338419 0.58394241 10.22829402 1.96127864 15.375 3.9375 C16.09816406 4.20240234 16.82132812 4.46730469 17.56640625 4.74023438 C22.87323778 6.74647556 22.87323778 6.74647556 24 9 C21.95737483 8.71512349 19.91592973 8.42177949 17.875 8.125 C16.73804688 7.96257812 15.60109375 7.80015625 14.4296875 7.6328125 C11.13921085 7.02568583 8.14220897 6.13654367 5 5 C5 4.34 5 3.68 5 3 C2.525 2.01 2.525 2.01 0 1 C0 0.67 0 0.34 0 0 Z " fill="#4AA469" transform="translate(281,137)"/>
<path d="M0 0 C2.92933595 2.82471681 5.62355034 5.68994512 8 9 C8 9.99 8 10.98 8 12 C8.66 12 9.32 12 10 12 C12.76249036 14.19436895 13.67423907 16.35821409 14.6875 19.6875 C15.06455078 20.89986328 15.06455078 20.89986328 15.44921875 22.13671875 C15.63097656 22.75160156 15.81273437 23.36648437 16 24 C12.12758406 22.70919469 11.31841698 21.00266064 9 17.6875 C8.319375 16.72199219 7.63875 15.75648437 6.9375 14.76171875 C6.298125 13.85035156 5.65875 12.93898438 5 12 C4.43539062 11.26394531 3.87078125 10.52789062 3.2890625 9.76953125 C1.85981109 7.80755886 1.4441887 6.3690064 1 4 C0.814375 3.2575 0.62875 2.515 0.4375 1.75 C0.293125 1.1725 0.14875 0.595 0 0 Z " fill="#159A42" transform="translate(133,26)"/>
<path d="M0 0 C0.66 0 1.32 0 2 0 C2.12117188 0.65226563 2.24234375 1.30453125 2.3671875 1.9765625 C3.66684498 9.13731561 3.66684498 9.13731561 6 16 C6.99 16.33 7.98 16.66 9 17 C9 17.66 9 18.32 9 19 C9.66 19.33 10.32 19.66 11 20 C9.02 20.99 9.02 20.99 7 22 C5.82508418 20.23462904 4.66031316 18.46250287 3.5 16.6875 C2.8503125 15.70136719 2.200625 14.71523437 1.53125 13.69921875 C0 11 0 11 0 8 C-0.185625 6.80375 -0.37125 5.6075 -0.5625 4.375 C-0.706875 3.26125 -0.85125 2.1475 -1 1 C-0.67 0.67 -0.34 0.34 0 0 Z " fill="#0C9D35" transform="translate(295,226)"/>
<path d="M0 0 C0 0.99 0 1.98 0 3 C-2.5 4.6875 -2.5 4.6875 -5 6 C-3.68 6 -2.36 6 -1 6 C-1 6.66 -1 7.32 -1 8 C-5.62 8.66 -10.24 9.32 -15 10 C-12 4 -12 4 -9.5625 2.75 C-8.716875 2.5025 -7.87125 2.255 -7 2 C-6.29875 1.62875 -5.5975 1.2575 -4.875 0.875 C-3 0 -3 0 0 0 Z " fill="#1B8F42" transform="translate(263,95)"/>
<path d="M0 0 C0.66 0 1.32 0 2 0 C2 0.66 2 1.32 2 2 C1.34 2 0.68 2 0 2 C0.33 2.99 0.66 3.98 1 5 C-1.41387612 5.55843403 -3.82944486 6.09704158 -6.25 6.625 C-7.27287109 6.86476562 -7.27287109 6.86476562 -8.31640625 7.109375 C-12.67508519 8.04035497 -13.8389896 8.0805052 -18 6 C-15.03 5.34 -12.06 4.68 -9 4 C-9 3.34 -9 2.68 -9 2 C-6.94921875 1.77213542 -4.8984375 1.54427083 -2.84765625 1.31640625 C-0.98859771 1.18113386 -0.98859771 1.18113386 0 0 Z " fill="#1EA749" transform="translate(116,132)"/>
<path d="M0 0 C-1.34556746 4.39000781 -2.97004476 6.05741976 -6.8125 8.5 C-10.68800062 11.06310244 -13.88110775 13.56921853 -17 17 C-17.33 16.01 -17.66 15.02 -18 14 C-16.08539961 12.22688737 -14.16842507 10.45646638 -12.25 8.6875 C-11.44175781 7.93823242 -11.44175781 7.93823242 -10.6171875 7.17382812 C-2.82574503 0 -2.82574503 0 0 0 Z " fill="#27A84F" transform="translate(115,144)"/>
<path d="M0 0 C0.99 0 1.98 0 3 0 C4.1875 2.25 4.1875 2.25 5 5 C3.625 7.3125 3.625 7.3125 2 9 C3.98 8.34 5.96 7.68 8 7 C5.74259377 9.33524782 3.7194239 11.18705073 1 13 C-1.1875 12.625 -1.1875 12.625 -3 12 C-2.34 12 -1.68 12 -1 12 C-1.020625 10.948125 -1.04125 9.89625 -1.0625 8.8125 C-1.01103198 5.67295096 -0.73482813 3.03116604 0 0 Z " fill="#05972E" transform="translate(21,166)"/>
<path d="M0 0 C0.66 0.33 1.32 0.66 2 1 C0.35 1.66 -1.3 2.32 -3 3 C-3 3.66 -3 4.32 -3 5 C-4.11375 5.433125 -5.2275 5.86625 -6.375 6.3125 C-10.17512334 7.69911119 -10.17512334 7.69911119 -12 11 C-15.125 11.6875 -15.125 11.6875 -18 12 C-17.9296875 10.23046875 -17.9296875 10.23046875 -17 8 C-14.69988533 6.57934094 -12.56392934 5.4297341 -10.125 4.3125 C-9.48691406 4.00505859 -8.84882813 3.69761719 -8.19140625 3.38085938 C-5.49268329 2.09347274 -2.83859572 0.94619857 0 0 Z " fill="#078434" transform="translate(243,9)"/>
<path d="M0 0 C0.33 0 0.66 0 1 0 C0.83112554 7.43047616 -3.13184348 12.84932815 -7 19 C-7.99 18.67 -8.98 18.34 -10 18 C-10 16.02 -10 14.04 -10 12 C-9.34 12.66 -8.68 13.32 -8 14 C-5.36 9.38 -2.72 4.76 0 0 Z " fill="#1FA145" transform="translate(200,42)"/>
<path d="M0 0 C6.72505081 0.16439013 10.21055351 1.21055351 15 6 C13.4375 6.75 13.4375 6.75 11 7 C8.49713591 5.86915563 6.32992278 4.47860484 4 3 C3.67 4.32 3.34 5.64 3 7 C2.01 7 1.02 7 0 7 C0 4.69 0 2.38 0 0 Z " fill="#1FA447" transform="translate(210,152)"/>
<path d="M0 0 C4.51650194 0.53135317 7.42058156 2.23408575 11 5 C11.33 5.99 11.66 6.98 12 8 C6.73946963 8.31563182 3.55426184 7.66590937 -1 5 C0.32 4.34 1.64 3.68 3 3 C2.01 2.01 1.02 1.02 0 0 Z " fill="#4DBA66" transform="translate(131,101)"/>
<path d="M0 0 C5.24099655 0.41105855 8.24039194 1.24039194 12 5 C12 5.66 12 6.32 12 7 C13.78723941 8.58455866 13.78723941 8.58455866 16 10.125 C17.11375 10.93324219 17.11375 10.93324219 18.25 11.7578125 C18.8275 12.16773437 19.405 12.57765625 20 13 C17 14 17 14 14.8125 13.0625 C14.214375 12.711875 13.61625 12.36125 13 12 C13 11.01 13 10.02 13 9 C12.21625 8.9175 11.4325 8.835 10.625 8.75 C9.325625 8.37875 9.325625 8.37875 8 8 C7.33333333 6.66666667 6.66666667 5.33333333 6 4 C2.9665533 2.23272142 2.9665533 2.23272142 0 1 C0 0.67 0 0.34 0 0 Z " fill="#28A25F" transform="translate(132,63)"/>
<path d="M0 0 C2.27141109 0.11402064 4.54214552 0.24158505 6.8125 0.375 C8.07707031 0.44460937 9.34164063 0.51421875 10.64453125 0.5859375 C14 1 14 1 17 3 C16.01 3.495 16.01 3.495 15 4 C16.32 4.99 17.64 5.98 19 7 C14.13103697 6.40380045 9.67209049 5.43023178 5 4 C5 3.34 5 2.68 5 2 C3.35 1.67 1.7 1.34 0 1 C0 0.67 0 0.34 0 0 Z " fill="#3CA060" transform="translate(267,134)"/>
<path d="M0 0 C5.58352713 -0.44080477 10.88855963 0.76604315 16 3 C16.99 4.485 16.99 4.485 18 6 C11.94474232 7.38766322 8.67989374 6.49118146 3 4 C3 3.34 3 2.68 3 2 C2.01 1.34 1.02 0.68 0 0 Z " fill="#21913A" transform="translate(89,83)"/>
<path d="M0 0 C-2.31 0.33 -4.62 0.66 -7 1 C-7 1.66 -7 2.32 -7 3 C-11.01804691 3.84098656 -14.01803543 4.05404945 -18 3 C-18 3.66 -18 4.32 -18 5 C-20.31 5.33 -22.62 5.66 -25 6 C-24.1875 4.0625 -24.1875 4.0625 -23 2 C-19.91513796 0.97171265 -17.36014798 0.72589562 -14.125 0.5 C-11.10883107 0.28833902 -8.25891281 0.05703587 -5.3046875 -0.59375 C-3 -1 -3 -1 0 0 Z " fill="#179644" transform="translate(268,104)"/>
<path d="M0 0 C1.5 1.25 1.5 1.25 3 3 C3 4.32 3 5.64 3 7 C-8.88 7 -20.76 7 -33 7 C-33 6.67 -33 6.34 -33 6 C-22.44 5.67 -11.88 5.34 -1 5 C-0.67 3.35 -0.34 1.7 0 0 Z " fill="#03801C" transform="translate(212,267)"/>
<path d="M0 0 C1.17219543 0.78345715 2.33763668 1.57702836 3.5 2.375 C4.1496875 2.81585938 4.799375 3.25671875 5.46875 3.7109375 C5.9740625 4.13632813 6.479375 4.56171875 7 5 C7 5.66 7 6.32 7 7 C-2.57 7 -12.14 7 -22 7 C-22 6.67 -22 6.34 -22 6 C-14.74 5.67 -7.48 5.34 0 5 C0 3.35 0 1.7 0 0 Z " fill="#0A8C2F" transform="translate(359,70)"/>
<path d="M0 0 C0 0.99 0 1.98 0 3 C-2.44921875 5.05078125 -2.44921875 5.05078125 -5.6875 7.3125 C-10.15432677 10.49741135 -13.65808872 13.65551534 -17 18 C-17.66 18 -18.32 18 -19 18 C-17.4095075 13.87252561 -14.40362718 11.31918107 -11.1875 8.4375 C-10.40536133 7.71530273 -10.40536133 7.71530273 -9.60742188 6.97851562 C-6.58781241 4.23787133 -3.57459097 1.96239098 0 0 Z " fill="#38AD64" transform="translate(39,60)"/>
<path d="M0 0 C3.02990095 1.71967351 5.76327296 3.29238306 8 6 C8 6.66 8 7.32 8 8 C8.556875 8.0825 9.11375 8.165 9.6875 8.25 C12.69714206 9.22610013 14.62154752 10.95188814 17 13 C16.67 13.66 16.34 14.32 16 15 C13.80273438 13.046875 13.80273438 13.046875 11.60546875 11.09375 C9.910552 9.71848759 9.910552 9.71848759 7 10 C5.17578125 8.828125 5.17578125 8.828125 3.3125 7.25 C2.68988281 6.73953125 2.06726563 6.2290625 1.42578125 5.703125 C0 4 0 4 0 0 Z " fill="#15A444" transform="translate(112,9)"/>
<path d="M0 0 C-3.26858595 1.81657521 -6.54024016 3.6275523 -9.8125 5.4375 C-10.74126953 5.95376953 -11.67003906 6.47003906 -12.62695312 7.00195312 C-13.9659668 7.74155273 -13.9659668 7.74155273 -15.33203125 8.49609375 C-16.15421143 8.95169678 -16.9763916 9.4072998 -17.82348633 9.87670898 C-20 11 -20 11 -23 12 C-21.68571501 8.05714503 -20.20026549 7.78713109 -16.5625 5.9375 C-12.48129609 3.88290141 -12.48129609 3.88290141 -9 1 C-9 0.67 -9 0.34 -9 0 C-5.5657338 -0.85856655 -3.38317487 -0.97591583 0 0 Z " fill="#02931D" transform="translate(54,160)"/>
<path d="M0 0 C2.31 0 4.62 0 7 0 C7 0.99 7 1.98 7 3 C8.32 3.66 9.64 4.32 11 5 C11 5.66 11 6.32 11 7 C13.475 7.99 13.475 7.99 16 9 C13.34501768 10.0169313 12.30844625 10.13022151 9.640625 9.00390625 C8.85171875 8.52824219 8.0628125 8.05257812 7.25 7.5625 C6.45078125 7.08941406 5.6515625 6.61632812 4.828125 6.12890625 C4.22484375 5.75636719 3.6215625 5.38382813 3 5 C3.99 4.67 4.98 4.34 6 4 C4.02 3.01 2.04 2.02 0 1 C0 0.67 0 0.34 0 0 Z " fill="#199242" transform="translate(314,149)"/>
<path d="M0 0 C2.66666667 0.66666667 5.33333333 1.33333333 8 2 C8.061875 2.61875 8.12375 3.2375 8.1875 3.875 C8.828919 6.27761141 8.828919 6.27761141 11.5625 7.25 C12.366875 7.4975 13.17125 7.745 14 8 C13.67 8.66 13.34 9.32 13 10 C9.67865043 8.85828608 6.70347797 7.34101632 3.6875 5.5625 C2.99011719 5.15128906 2.29273438 4.74007812 1.57421875 4.31640625 C1.05472656 3.88199219 0.53523438 3.44757813 0 3 C0 2.01 0 1.02 0 0 Z " fill="#179340" transform="translate(331,159)"/>
<path d="M0 0 C7.42686315 -0.10331031 14.63512596 0.00137301 22 1 C22 1.66 22 2.32 22 3 C18.70849875 3.08685287 15.4172904 3.14033895 12.125 3.1875 C11.18785156 3.21263672 10.25070313 3.23777344 9.28515625 3.26367188 C8.38925781 3.27333984 7.49335937 3.28300781 6.5703125 3.29296875 C5.74289551 3.3086792 4.91547852 3.32438965 4.06298828 3.34057617 C3.38220215 3.22818604 2.70141602 3.1157959 2 3 C1.34 2.01 0.68 1.02 0 0 Z " fill="#31B66E" transform="translate(76,48)"/>
<path d="M0 0 C0.66 0 1.32 0 2 0 C3.7879537 6.8165735 4.23668569 12.96517526 4 20 C3.34 20 2.68 20 2 20 C1.66254646 17.60468244 1.3299171 15.20885732 1 12.8125 C0.90460938 12.13896484 0.80921875 11.46542969 0.7109375 10.77148438 C0.21675387 7.15335423 -0.11346131 3.65203599 0 0 Z " fill="#2AAC6B" transform="translate(359,157)"/>
<path d="M0 0 C4.51408391 1.15476565 8.84585822 2.87213238 13.18359375 4.55859375 C13.18359375 4.88859375 13.18359375 5.21859375 13.18359375 5.55859375 C7.82188529 5.16297254 3.14019045 4.76152562 -1.81640625 2.55859375 C-3.80883875 2.18266309 -5.80827365 1.8387983 -7.81640625 1.55859375 C-4.60017312 -0.58556167 -3.66545573 -0.63849874 0 0 Z " fill="#279D4C" transform="translate(295.81640625,103.44140625)"/>
<path d="M0 0 C0.66 0.33 1.32 0.66 2 1 C-0.9901021 4.33511388 -3.89498574 6.21521119 -8 8 C-8.66 8 -9.32 8 -10 8 C-10 7.34 -10 6.68 -10 6 C-11.32 6.33 -12.64 6.66 -14 7 C-14 6.34 -14 5.68 -14 5 C-13.40832031 4.80664062 -12.81664062 4.61328125 -12.20703125 4.4140625 C-8.77305494 3.28247487 -5.39149191 2.1665923 -2.0625 0.75 C-1.381875 0.5025 -0.70125 0.255 0 0 Z " fill="#15913B" transform="translate(273,89)"/>
<path d="M0 0 C0.33 0 0.66 0 1 0 C1.25949109 4.02211184 0.56801525 6.54372899 -1.25 10.125 C-1.66765625 10.97320312 -2.0853125 11.82140625 -2.515625 12.6953125 C-4.0820825 15.12744389 -5.5953367 16.42772015 -8 18 C-7.67 16.02 -7.34 14.04 -7 12 C-6.34 12 -5.68 12 -5 12 C-4.80664062 11.38511719 -4.61328125 10.77023438 -4.4140625 10.13671875 C-4.02347656 8.92435547 -4.02347656 8.92435547 -3.625 7.6875 C-3.36976563 6.88699219 -3.11453125 6.08648437 -2.8515625 5.26171875 C-2 3 -2 3 0 0 Z " fill="#129546" transform="translate(226,64)"/>
<path d="M0 0 C4.72091613 2.06003613 8.69424544 4.96163938 12.4375 8.5 C12.7675 9.49 13.0975 10.48 13.4375 11.5 C10.07758841 9.91138932 7.0006733 8.0072351 3.875 6 C2.92496094 5.3915625 1.97492188 4.783125 0.99609375 4.15625 C-0.86564242 2.95109559 -2.71721227 1.73019182 -4.5625 0.5 C-2.5625 -0.5 -2.5625 -0.5 0 0 Z " fill="#30AE65" transform="translate(154.5625,13.5)"/>
<path d="M0 0 C0.66 0 1.32 0 2 0 C3.4631783 1.97440927 4.80713064 3.93238871 6.125 6 C6.49753906 6.57234375 6.87007813 7.1446875 7.25390625 7.734375 C8.17550408 9.15221782 9.08855821 10.57560725 10 12 C9.34 13.32 8.68 14.64 8 16 C7.443125 14.824375 6.88625 13.64875 6.3125 12.4375 C4.24872155 8.28775193 1.77796448 4.70395264 -1 1 C-0.67 0.67 -0.34 0.34 0 0 Z " fill="#179754" transform="translate(289,167)"/>
<path d="M0 0 C0.33 0 0.66 0 1 0 C1.48009262 2.06228466 1.95903544 4.12483701 2.4375 6.1875 C2.83775391 7.91033203 2.83775391 7.91033203 3.24609375 9.66796875 C3.87312201 12.43923875 4.45899177 15.21091874 5 18 C4.34 18 3.68 18 3 18 C-0.50444331 11.63785614 -1.55271035 7.13909214 0 0 Z " fill="#16A142" transform="translate(75,227)"/>
<path d="M0 0 C0.33 0.99 0.66 1.98 1 3 C-0.06716072 4.20205464 -1.15438337 5.38632333 -2.25 6.5625 C-3.15492188 7.55443359 -3.15492188 7.55443359 -4.078125 8.56640625 C-6 10 -6 10 -8.234375 9.71484375 C-8.81703125 9.47894531 -9.3996875 9.24304688 -10 9 C-6.93906776 5.06451569 -4.50884026 2.31883213 0 0 Z " fill="#0E922C" transform="translate(146,165)"/>
<path d="M0 0 C3.3 0.33 6.6 0.66 10 1 C10 1.33 10 1.66 10 2 C6.93852743 2.50642925 3.87567701 3.00399322 0.8125 3.5 C-0.05181641 3.64308594 -0.91613281 3.78617187 -1.80664062 3.93359375 C-5.90526577 4.59314262 -9.83226024 5.20709266 -14 5 C-10.7897878 1.7897878 -7.62539686 2.01025241 -3.1875 1.9375 C-2.135625 1.958125 -1.08375 1.97875 0 2 C0 1.34 0 0.68 0 0 Z " fill="#3DAF64" transform="translate(262,101)"/>
<path d="M0 0 C1.58628608 0.59637091 3.16892059 1.20245925 4.75 1.8125 C5.63171875 2.14894531 6.5134375 2.48539062 7.421875 2.83203125 C11.70971483 4.77455263 14.33990513 7.14286244 17 11 C14.69 10.67 12.38 10.34 10 10 C10 8.68 10 7.36 10 6 C9.0925 5.71125 8.185 5.4225 7.25 5.125 C4.67797092 4.23468224 2.38653234 3.28505587 0 2 C0 1.34 0 0.68 0 0 Z " fill="#36A255" transform="translate(118,94)"/>
<path d="M0 0 C0.66 0.66 1.32 1.32 2 2 C1.67 2.66 1.34 3.32 1 4 C1.99 4.33 2.98 4.66 4 5 C3.0479279 6.00596297 2.08812654 7.00461563 1.125 8 C0.59132812 8.556875 0.05765625 9.11375 -0.4921875 9.6875 C-2 11 -2 11 -4 11 C-3.67 8.69 -3.34 6.38 -3 4 C-2.34 4 -1.68 4 -1 4 C-0.67 2.68 -0.34 1.36 0 0 Z " fill="#1FAC52" transform="translate(220,78)"/>
<path d="M0 0 C2.95857409 -0.05379226 5.91617721 -0.09357093 8.875 -0.125 C9.71675781 -0.14175781 10.55851562 -0.15851562 11.42578125 -0.17578125 C12.23144531 -0.18222656 13.03710938 -0.18867187 13.8671875 -0.1953125 C14.98262939 -0.21102295 14.98262939 -0.21102295 16.12060547 -0.22705078 C18 0 18 0 20 2 C17.36 3.98 14.72 5.96 12 8 C12.66 6.68 13.32 5.36 14 4 C14 3.34 14 2.68 14 2 C9.38 2 4.76 2 0 2 C0 1.34 0 0.68 0 0 Z " fill="#018323" transform="translate(254,7)"/>
<path d="M0 0 C0.33 0 0.66 0 1 0 C1.85373239 7.02804699 2.12109311 13.92278069 2 21 C2.78375 20.79375 3.5675 20.5875 4.375 20.375 C5.674375 20.189375 5.674375 20.189375 7 20 C7.66 20.66 8.32 21.32 9 22 C5.7 22.66 2.4 23.32 -1 24 C-0.67 16.08 -0.34 8.16 0 0 Z " fill="#0C701C" transform="translate(168,252)"/>
<path d="M0 0 C-0.33 0.99 -0.66 1.98 -1 3 C-1.66 3 -2.32 3 -3 3 C-3.268125 3.598125 -3.53625 4.19625 -3.8125 4.8125 C-5.02300334 7.04237457 -5.991379 8.45490692 -8 10 C-9.32 10 -10.64 10 -12 10 C-10.80230322 6.40690966 -9.5323211 5.57906747 -6.5625 3.3125 C-5.75941406 2.68988281 -4.95632812 2.06726563 -4.12890625 1.42578125 C-2 0 -2 0 0 0 Z " fill="#0F953B" transform="translate(38,64)"/>
<path d="M0 0 C-2.44786227 2.44786227 -4.74317342 3.30080644 -7.9375 4.625 C-9.52884766 5.29402344 -9.52884766 5.29402344 -11.15234375 5.9765625 C-14 7 -14 7 -17 7 C-17 6.34 -17 5.68 -17 5 C-15.29870914 4.15238178 -13.58856916 3.3225132 -11.875 2.5 C-10.92367187 2.0359375 -9.97234375 1.571875 -8.9921875 1.09375 C-5.78803369 -0.07748116 -3.38282687 -0.20076124 0 0 Z " fill="#2DA863" transform="translate(81,109)"/>
<path d="M0 0 C5.08938811 1.59043379 8.87456643 4.7446951 13 8 C12.67 8.99 12.34 9.98 12 11 C9.99406276 9.54927753 7.99539826 8.09008971 6 6.625 C5.42765625 6.2125 4.8553125 5.8 4.265625 5.375 C2.80684688 4.29828281 1.39899024 3.15333422 0 2 C0 1.34 0 0.68 0 0 Z " fill="#2CA367" transform="translate(143,68)"/>
<path d="M0 0 C-2.48262432 2.48262432 -4.61775287 3.07286975 -7.9375 4.1875 C-8.99839844 4.55230469 -10.05929687 4.91710938 -11.15234375 5.29296875 C-14 6 -14 6 -17 5 C-16.34 5 -15.68 5 -15 5 C-15 4.34 -15 3.68 -15 3 C-9.63999211 0.74315457 -5.8022175 -0.36263859 0 0 Z " fill="#34B265" transform="translate(282,50)"/>
<path d="M0 0 C4.35486002 5.22583202 6.31408515 8.09012671 6 15 C3.045111 11.4541332 0.54065015 7.36218967 -1 3 C-0.67 2.01 -0.34 1.02 0 0 Z " fill="#1D9857" transform="translate(184,43)"/>
<path d="M0 0 C0.33 0.99 0.66 1.98 1 3 C1.66 3 2.32 3 3 3 C2.67 4.65 2.34 6.3 2 8 C-1.40320742 6.98823563 -2.75725331 6.35156418 -4.8125 3.375 C-5.204375 2.59125 -5.59625 1.8075 -6 1 C-4.02 1.66 -2.04 2.32 0 3 C0 2.01 0 1.02 0 0 Z " fill="#1F8C4D" transform="translate(360,174)"/>
<path d="M0 0 C0.66 0.33 1.32 0.66 2 1 C-0.35662521 3.65023753 -2.75254154 5.03467782 -5.9375 6.5625 C-6.79214844 6.97628906 -7.64679688 7.39007813 -8.52734375 7.81640625 C-9.34332031 8.20699219 -10.15929687 8.59757812 -11 9 C-12.33468103 9.66396443 -13.66852538 10.32962879 -15 11 C-13.60876681 6.82630044 -10.71569074 5.77753896 -7.0625 3.75 C-6.41603516 3.37359375 -5.76957031 2.9971875 -5.10351562 2.609375 C-3.43996327 1.66963203 -1.72248084 0.8267908 0 0 Z " fill="#249E61" transform="translate(237,9)"/>
<path d="M0 0 C-3 1 -3 1 -6 0 C-6 0.66 -6 1.32 -6 2 C-8.475 1.01 -8.475 1.01 -11 0 C-11 -0.99 -11 -1.98 -11 -3 C-6.57716576 -5.12296044 -3.74455635 -2.37635307 0 0 Z " fill="#4BAC62" transform="translate(272,147)"/>
<path d="M0 0 C1.71253527 0.05393368 3.4228674 0.18135927 5.12890625 0.33984375 C6.16337891 0.43330078 7.19785156 0.52675781 8.26367188 0.62304688 C9.35228516 0.72681641 10.44089844 0.83058594 11.5625 0.9375 C13.2012207 1.08735352 13.2012207 1.08735352 14.87304688 1.24023438 C17.58251057 1.48870048 20.29141348 1.74217463 23 2 C23 2.33 23 2.66 23 3 C15.92278069 3.12109311 9.02804699 2.85373239 2 2 C1.67 2.99 1.34 3.98 1 5 C0.34 3.68 -0.32 2.36 -1 1 C-0.67 0.67 -0.34 0.34 0 0 Z " fill="#189050" transform="translate(110,6)"/>
<path d="M0 0 C5.77378925 0.4811491 9.95859836 2.18467181 15 5 C11.60731255 6.13089582 10.77743849 5.86432909 7.5 4.75 C6.33984375 4.37101563 6.33984375 4.37101563 5.15625 3.984375 C2.90041531 2.95453743 1.62271845 1.85156336 0 0 Z " fill="#53A872" transform="translate(290,140)"/>
<path d="M0 0 C0.99 0.33 1.98 0.66 3 1 C2.3503125 1.5878125 2.3503125 1.5878125 1.6875 2.1875 C-0.1287076 4.00599296 -0.1287076 4.00599296 -1.5 6.5625 C-3 9 -3 9 -6 11 C-5.44509362 7.67056175 -4.79000672 4.88389972 -3 2 C-2.01 1.34 -1.02 0.68 0 0 Z " fill="#097F27" transform="translate(267,9)"/>
<path d="M0 0 C0.65234375 1.765625 0.65234375 1.765625 1 4 C0.00390625 5.921875 0.00390625 5.921875 -1.4375 7.75 C-1.91058594 8.36359375 -2.38367188 8.9771875 -2.87109375 9.609375 C-3.24363281 10.06828125 -3.61617188 10.5271875 -4 11 C-4.99 10.67 -5.98 10.34 -7 10 C-6 7 -6 7 -3 5 C-2.63837971 3.67405895 -2.30271961 2.34061543 -2 1 C-1.34 0.67 -0.68 0.34 0 0 Z " fill="#067629" transform="translate(86,236)"/>
<path d="M0 0 C6.65545792 -0.54330269 10.45834744 0.22695996 16 4 C12.10481722 5.94759139 6.50006753 3.16073599 2.5 1.875 C1.675 1.58625 0.85 1.2975 0 1 C0 0.67 0 0.34 0 0 Z " fill="#3C9B5F" transform="translate(297,145)"/>
<path d="M0 0 C3.63 0 7.26 0 11 0 C11 0.66 11 1.32 11 2 C11.66 2.33 12.32 2.66 13 3 C11.58344207 3.0272415 10.16672955 3.04650467 8.75 3.0625 C7.56664062 3.07990234 7.56664062 3.07990234 6.359375 3.09765625 C4.09308998 3.00385306 2.1711105 2.63241063 0 2 C0 1.34 0 0.68 0 0 Z " fill="#1C8D32" transform="translate(42,77)"/>
<path d="M0 0 C3.53586843 0.57760323 5.20958289 1.8272067 7.6875 4.375 C8.28949219 4.98085937 8.89148438 5.58671875 9.51171875 6.2109375 C11 8 11 8 12 11 C8.57472113 9.52651292 6.35044942 7.59092154 3.75 4.9375 C3.04359375 4.22464844 2.3371875 3.51179688 1.609375 2.77734375 C0 1 0 1 0 0 Z " fill="#329E54" transform="translate(354,64)"/>
<path d="M0 0 C2 3 2 3 1.8125 5.8125 C0.952223 9.18743283 -0.33104972 11.95235166 -2 15 C-2.66 15 -3.32 15 -4 15 C-3.34 12.69 -2.68 10.38 -2 8 C-1.34 8 -0.68 8 0 8 C0 5.36 0 2.72 0 0 Z " fill="#1A954D" transform="translate(308,230)"/>
<path d="M0 0 C5.18701457 0.31436452 8.5947359 3.30033267 12 7 C12 7.66 12 8.32 12 9 C8.15199046 8.45028435 6.64690561 6.72962142 4 4 C1.86690808 2.76487921 1.86690808 2.76487921 0 2 C0 1.34 0 0.68 0 0 Z " fill="#5FBA7B" transform="translate(266,147)"/>
<path d="M0 0 C5.41390868 0.46671627 9.20517932 1.24297811 14 4 C12.3125 5.1875 12.3125 5.1875 10 6 C7.5625 4.75 7.5625 4.75 5 3 C3.34630643 2.30177383 1.68272986 1.62501395 0 1 C0 0.67 0 0.34 0 0 Z " fill="#339F52" transform="translate(306,109)"/>
<path d="M0 0 C1.65 0.33 3.3 0.66 5 1 C4.34 2.65 3.68 4.3 3 6 C1.35 5.67 -0.3 5.34 -2 5 C-2.33 4.01 -2.66 3.02 -3 2 C-2.01 2 -1.02 2 0 2 C0 1.34 0 0.68 0 0 Z " fill="#289D38" transform="translate(69,76)"/>
<path d="M0 0 C5.80165739 0.97458672 10.83982722 2.01253155 16 5 C12.82892754 6.58553623 10.29964696 4.9671379 7 4 C5.68 4 4.36 4 3 4 C3 3.34 3 2.68 3 2 C2.01 2 1.02 2 0 2 C0 1.34 0 0.68 0 0 Z " fill="#139551" transform="translate(134,9)"/>
<path d="M0 0 C-2.26607052 1.03275341 -4.53681939 2.05133551 -6.8125 3.0625 C-7.77639648 3.50432617 -7.77639648 3.50432617 -8.75976562 3.95507812 C-13.66015625 6.11328125 -13.66015625 6.11328125 -17 5 C-14.65117776 2.65117776 -12.72876333 1.96496976 -9.625 0.8125 C-8.66851562 0.44769531 -7.71203125 0.08289063 -6.7265625 -0.29296875 C-3.94714704 -1.01370542 -2.64891897 -0.98549829 0 0 Z " fill="#0C872C" transform="translate(290,86)"/>
<path d="M0 0 C0.66 0.99 1.32 1.98 2 3 C0.02 5.31 -1.96 7.62 -4 10 C-4.99 9.67 -5.98 9.34 -7 9 C-5.7260411 6.96166576 -4.38938077 4.96147874 -3 3 C-2.34 3 -1.68 3 -1 3 C-0.67 2.01 -0.34 1.02 0 0 Z " fill="#0F8935" transform="translate(250,29)"/>
<path d="M0 0 C0 0.66 0 1.32 0 2 C-6.93 3.485 -6.93 3.485 -14 5 C-10.58522132 -0.12216802 -5.84766819 -0.27846039 0 0 Z " fill="#2FB068" transform="translate(252,6)"/>
<path d="M0 0 C4.29 0.33 8.58 0.66 13 1 C13.33 1.99 13.66 2.98 14 4 C6.575 3.01 6.575 3.01 -1 2 C-0.67 1.34 -0.34 0.68 0 0 Z " fill="#1A9144" transform="translate(269,132)"/>
<path d="M0 0 C0.99 0 1.98 0 3 0 C3 0.66 3 1.32 3 2 C6.465 1.505 6.465 1.505 10 1 C10 1.66 10 2.32 10 3 C5.38 3.66 0.76 4.32 -4 5 C-3.34 4.01 -2.68 3.02 -2 2 C-1.34 2 -0.68 2 0 2 C0 1.34 0 0.68 0 0 Z " fill="#28A84B" transform="translate(252,100)"/>
<path d="M0 0 C0.66 0.33 1.32 0.66 2 1 C1.67 1.66 1.34 2.32 1 3 C0.34 3 -0.32 3 -1 3 C-1.20625 3.5775 -1.4125 4.155 -1.625 4.75 C-3.49750888 7.81410544 -5.96958519 9.15539968 -9 11 C-9.66 10.67 -10.32 10.34 -11 10 C-8.94766315 7.7522025 -7.99332739 6.9977758 -5 6 C-3.57142881 4.59894424 -3.57142881 4.59894424 -2.3125 2.9375 C-1.1678125 1.4834375 -1.1678125 1.4834375 0 0 Z " fill="#17943D" transform="translate(229,78)"/>
<path d="M0 0 C0.7425 0.185625 1.485 0.37125 2.25 0.5625 C4.94990963 0.99203108 6.44631077 0.85122974 9 0 C6.74259377 2.33524782 4.7194239 4.18705073 2 6 C-0.1875 5.625 -0.1875 5.625 -2 5 C-1.34 5 -0.68 5 0 5 C0 3.35 0 1.7 0 0 Z " fill="#047324" transform="translate(20,173)"/>
<path d="M0 0 C0.66 0.33 1.32 0.66 2 1 C1.125 3.3125 1.125 3.3125 -1 6 C-4.25503832 7.34185155 -7.57339945 8.20924603 -11 9 C-9.07062951 6.10594427 -8.39883047 5.45447272 -5.5 3.9375 C-3.22713195 2.7384658 -1.84944218 1.84944218 0 0 Z " fill="#109D40" transform="translate(128,136)"/>
<path d="M0 0 C0.33 0.99 0.66 1.98 1 3 C-0.4391134 2.71640113 -1.87625518 2.42278601 -3.3125 2.125 C-4.11300781 1.96257812 -4.91351563 1.80015625 -5.73828125 1.6328125 C-8 1 -8 1 -11 -1 C-6.99434629 -2.60226148 -3.91390601 -1.47694566 0 0 Z " fill="#208E47" transform="translate(296,138)"/>
<path d="M0 0 C2.5 2.3125 2.5 2.3125 5 5 C5 5.99 5 6.98 5 8 C3.68 7.34 2.36 6.68 1 6 C1 5.34 1 4.68 1 4 C0.01 3.67 -0.98 3.34 -2 3 C-1.34 2.67 -0.68 2.34 0 2 C0 1.34 0 0.68 0 0 Z " fill="#3CAB62" transform="translate(284,160)"/>
<path d="M0 0 C0 0.66 0 1.32 0 2 C-1.61992165 2.86375896 -3.24611861 3.71575854 -4.875 4.5625 C-6.23238281 5.27599609 -6.23238281 5.27599609 -7.6171875 6.00390625 C-8.40351562 6.33261719 -9.18984375 6.66132813 -10 7 C-10.66 6.67 -11.32 6.34 -12 6 C-10.56839732 4.99157547 -9.12948547 3.99352109 -7.6875 3 C-6.88699219 2.443125 -6.08648437 1.88625 -5.26171875 1.3125 C-3 0 -3 0 0 0 Z " fill="#098728" transform="translate(67,151)"/>
<path d="M0 0 C7.84179688 6.4453125 7.84179688 6.4453125 10 10 C10 10.66 10 11.32 10 12 C9.34 12 8.68 12 8 12 C6.98133771 10.34467377 5.98189187 8.67739862 5 7 C4.34 6.67 3.68 6.34 3 6 C3 5.34 3 4.68 3 4 C2.01 3.67 1.02 3.34 0 3 C0 2.01 0 1.02 0 0 Z " fill="#0B8535" transform="translate(339,129)"/>
<path d="M0 0 C1.52519276 0.08937803 3.04681929 0.24537146 4.5625 0.4375 C5.38878906 0.53933594 6.21507813 0.64117187 7.06640625 0.74609375 C7.70449219 0.82988281 8.34257813 0.91367188 9 1 C9 1.33 9 1.66 9 2 C4.64667264 2.84023188 0.55557481 3.10770995 -3.875 3.0625 C-5.02742188 3.05347656 -6.17984375 3.04445313 -7.3671875 3.03515625 C-8.23601562 3.02355469 -9.10484375 3.01195313 -10 3 C-10 2.67 -10 2.34 -10 2 C-9.04287109 1.90912109 -9.04287109 1.90912109 -8.06640625 1.81640625 C-6.82697266 1.69072266 -6.82697266 1.69072266 -5.5625 1.5625 C-4.73878906 1.48128906 -3.91507812 1.40007812 -3.06640625 1.31640625 C-1.01337975 1.21069185 -1.01337975 1.21069185 0 0 Z " fill="#32BB6A" transform="translate(110,102)"/>
<path d="M0 0 C1.5 1.25 1.5 1.25 3 3 C3 4.32 3 5.64 3 7 C-0.63 7 -4.26 7 -8 7 C-4 5 -4 5 -1 5 C-0.67 3.35 -0.34 1.7 0 0 Z " fill="#088817" transform="translate(212,267)"/>
<path d="M0 0 C-1.47692308 4.67692308 -1.47692308 4.67692308 -4.125 6.3125 C-5.053125 6.6528125 -5.053125 6.6528125 -6 7 C-6.66 6.34 -7.32 5.68 -8 5 C-2.25 0 -2.25 0 0 0 Z " fill="#24A146" transform="translate(115,144)"/>
<path d="M0 0 C0 0.66 0 1.32 0 2 C-3.3125 2.6875 -3.3125 2.6875 -7 3 C-8.9375 1.5625 -8.9375 1.5625 -10 0 C-3.375 -1.125 -3.375 -1.125 0 0 Z " fill="#28AA52" transform="translate(255,134)"/>
<path d="M0 0 C3.94859783 0.5640854 6.70879046 1.7431706 10 4 C10 4.33 10 4.66 10 5 C7.36 5 4.72 5 2 5 C2.33 4.34 2.66 3.68 3 3 C2.01 2.01 1.02 1.02 0 0 Z " fill="#44AE5F" transform="translate(131,101)"/>
<path d="M0 0 C5.62917348 0.40208382 8.00386479 2.28930302 12 6 C9 7 9 7 6.8125 6.0625 C6.214375 5.711875 5.61625 5.36125 5 5 C5 4.01 5 3.02 5 2 C3.35 1.67 1.7 1.34 0 1 C0 0.67 0 0.34 0 0 Z " fill="#119B52" transform="translate(140,70)"/>
<path d="M0 0 C1.17219543 0.78345715 2.33763668 1.57702836 3.5 2.375 C4.47453125 3.03628906 4.47453125 3.03628906 5.46875 3.7109375 C5.9740625 4.13632813 6.479375 4.56171875 7 5 C7 5.66 7 6.32 7 7 C5.02 7 3.04 7 1 7 C0.67 4.69 0.34 2.38 0 0 Z " fill="#0A7628" transform="translate(359,70)"/>
<path d="M0 0 C0.66 0.66 1.32 1.32 2 2 C4.10820797 1.6814823 4.10820797 1.6814823 6 1 C5.01 2.98 4.02 4.96 3 7 C2.01 6.67 1.02 6.34 0 6 C0 4.02 0 2.04 0 0 Z " fill="#28AB52" transform="translate(190,54)"/>
<path d="M0 0 C1.65 0.99 3.3 1.98 5 3 C3.68 4.32 2.36 5.64 1 7 C1 6.34 1 5.68 1 5 C0.01 5.33 -0.98 5.66 -2 6 C-1.34 4.02 -0.68 2.04 0 0 Z " fill="#0B991D" transform="translate(121,184)"/>
<path d="M0 0 C1.32 0 2.64 0 4 0 C4 0.99 4 1.98 4 3 C-1.2734375 6.22265625 -1.2734375 6.22265625 -3 7 C-3.66 6.67 -4.32 6.34 -5 6 C-3.625 4.5 -3.625 4.5 -2 3 C-1.34 3 -0.68 3 0 3 C0 2.01 0 1.02 0 0 Z " fill="#3FBB5B" transform="translate(127,133)"/>
<path d="M0 0 C3.33717549 1.3809002 5.22301036 2.8201238 7 6 C6.57421875 8.1328125 6.57421875 8.1328125 6 10 C4.99421411 8.71283353 3.99553202 7.42011342 3 6.125 C2.443125 5.40570313 1.88625 4.68640625 1.3125 3.9453125 C0 2 0 2 0 0 Z " fill="#2A9C5F" transform="translate(177,35)"/>
<path d="M0 0 C2.475 0.495 2.475 0.495 5 1 C5 1.66 5 2.32 5 3 C5.66 3.33 6.32 3.66 7 4 C5.02 4.99 5.02 4.99 3 6 C0 2.25 0 2.25 0 0 Z " fill="#137A37" transform="translate(299,242)"/>
<path d="M0 0 C0.99 0.33 1.98 0.66 3 1 C3 1.99 3 2.98 3 4 C0.69 4.33 -1.62 4.66 -4 5 C-2.25 1.125 -2.25 1.125 0 0 Z " fill="#1BA94F" transform="translate(247,105)"/>
<path d="M0 0 C0.33 0 0.66 0 1 0 C1.12117187 0.60328125 1.24234375 1.2065625 1.3671875 1.828125 C1.53476563 2.62734375 1.70234375 3.4265625 1.875 4.25 C2.03742188 5.03890625 2.19984375 5.8278125 2.3671875 6.640625 C2.99150075 8.96831144 3.84838542 10.89031952 5 13 C4.34 13 3.68 13 3 13 C-1.67014147 5.55696203 -1.67014147 5.55696203 -1 1 C-0.67 0.67 -0.34 0.34 0 0 Z " fill="#0FA033" transform="translate(149,46)"/>
<path d="M0 0 C2.4375 1.1875 2.4375 1.1875 5 3 C5.8125 5.6875 5.8125 5.6875 6 8 C3 6.25 3 6.25 0 4 C0 2.68 0 1.36 0 0 Z " fill="#189D38" transform="translate(112,9)"/>
<path d="M0 0 C-4 2 -8 4 -12 6 C-12.33 5.34 -12.66 4.68 -13 4 C-8.38987758 1.04952165 -5.63470383 -0.5497272 0 0 Z " fill="#02872C" transform="translate(253,8)"/>
<path d="M0 0 C0.99 0.33 1.98 0.66 3 1 C0.03 5.95 0.03 5.95 -3 11 C-4 8 -4 8 -3.22265625 5.95703125 C-2.83980469 5.24933594 -2.45695312 4.54164063 -2.0625 3.8125 C-1.68222656 3.09707031 -1.30195312 2.38164062 -0.91015625 1.64453125 C-0.60980469 1.10183594 -0.30945313 0.55914062 0 0 Z " fill="#05821D" transform="translate(91,227)"/>
<path d="M0 0 C0.66 0.33 1.32 0.66 2 1 C0.74874616 4.75376152 -0.5652404 5.24073289 -4 7 C-4.66 7 -5.32 7 -6 7 C-4.60667426 3.63279613 -3.0210714 2.0140476 0 0 Z " fill="#2AAD56" transform="translate(121,138)"/>
<path d="M0 0 C1.8871875 0.0309375 1.8871875 0.0309375 3.8125 0.0625 C-0.59389354 2.26569677 -3.16200871 3.17174981 -8.1875 3.0625 C-6.45706736 -0.39836529 -3.47359009 -0.0569441 0 0 Z " fill="#3CA852" transform="translate(127.1875,131.9375)"/>
<path d="M0 0 C4.83256305 0.41421969 6.82679218 2.46413986 10 6 C6.00452264 5.38531118 3.22493358 3.34540624 0 1 C0 0.67 0 0.34 0 0 Z " fill="#34AF5B" transform="translate(346,58)"/>
<path d="M0 0 C0.33 0.99 0.66 1.98 1 3 C-2.63 2.67 -6.26 2.34 -10 2 C-6.3558226 -0.4294516 -4.28758728 -0.16179575 0 0 Z " fill="#249F4F" transform="translate(274,5)"/>
<path d="M0 0 C0 0.99 0 1.98 0 3 C-6.75 7 -6.75 7 -9 7 C-8 4 -8 4 -6.15234375 2.83203125 C-5.42144531 2.49558594 -4.69054688 2.15914062 -3.9375 1.8125 C-3.20402344 1.46832031 -2.47054687 1.12414062 -1.71484375 0.76953125 C-1.14894531 0.51558594 -0.58304688 0.26164063 0 0 Z " fill="#038723" transform="translate(40,165)"/>
<path d="M0 0 C0.66 0.66 1.32 1.32 2 2 C1.21625 2.598125 0.4325 3.19625 -0.375 3.8125 C-3.14574323 5.91085249 -3.14574323 5.91085249 -5 9 C-5.66 9 -6.32 9 -7 9 C-5.44499019 5.18315774 -2.96404505 2.80804268 0 0 Z " fill="#2D9B5A" transform="translate(27,69)"/>
<path d="M0 0 C-1.5625 2.0625 -1.5625 2.0625 -4 4 C-7.75 3.75 -7.75 3.75 -11 3 C-7.11595442 0.41063628 -4.5725325 -0.12358196 0 0 Z " fill="#2AC064" transform="translate(69,49)"/>
<path d="M0 0 C1.8125 0.1875 1.8125 0.1875 4 1 C5.75 3.5625 5.75 3.5625 7 6 C2.32307692 4.52307692 2.32307692 4.52307692 0.6875 1.875 C0.460625 1.25625 0.23375 0.6375 0 0 Z " fill="#21A547" transform="translate(348,171)"/>
<path d="M0 0 C0.928125 0.2784375 0.928125 0.2784375 1.875 0.5625 C4.04160178 1.23686176 4.04160178 1.23686176 6 0 C6.99 0.99 7.98 1.98 9 3 C8.34 3 7.68 3 7 3 C6.67 3.66 6.34 4.32 6 5 C3.98079663 3.69593116 1.98075027 2.36176581 0 1 C0 0.67 0 0.34 0 0 Z " fill="#11A037" transform="translate(233,167)"/>
<path d="M0 0 C0.99 0 1.98 0 3 0 C3 2.31 3 4.62 3 7 C2.01 7 1.02 7 0 7 C0 4.69 0 2.38 0 0 Z " fill="#24B859" transform="translate(210,152)"/>
<path d="M0 0 C0.66 0.33 1.32 0.66 2 1 C0.02 2.98 -1.96 4.96 -4 7 C-4.99 6.67 -5.98 6.34 -7 6 C-4.69 4.02 -2.38 2.04 0 0 Z " fill="#118F3D" transform="translate(238,71)"/>
<path d="M0 0 C3.82097239 0.53069061 6.06171403 1.49701566 9 4 C6.36 3.67 3.72 3.34 1 3 C0.67 2.01 0.34 1.02 0 0 Z " fill="#27B554" transform="translate(126,59)"/>
<path d="M0 0 C-2.59482129 2.59482129 -4.39883625 2.69990302 -8 3 C-8.66 2.34 -9.32 1.68 -10 1 C-3.375 -1.125 -3.375 -1.125 0 0 Z " fill="#0A8E40" transform="translate(283,52)"/>
<path d="M0 0 C1.98 1.65 3.96 3.3 6 5 C5.01 5.66 4.02 6.32 3 7 C2.01 6.34 1.02 5.68 0 5 C-0.1875 2.375 -0.1875 2.375 0 0 Z " fill="#23A255" transform="translate(167,22)"/>
<path d="M0 0 C1.875 0.3125 1.875 0.3125 4 1 C4.66 1.99 5.32 2.98 6 4 C4.125 4.625 4.125 4.625 2 5 C1.34 4.34 0.68 3.68 0 3 C0 2.01 0 1.02 0 0 Z " fill="#199745" transform="translate(240,170)"/>
<path d="M0 0 C0.66 0 1.32 0 2 0 C4.09230769 4.43076923 4.09230769 4.43076923 3.625 7.3125 C3.41875 7.869375 3.2125 8.42625 3 9 C1.35173889 6.03312999 0.55728913 3.34373475 0 0 Z " fill="#2F9B60" transform="translate(356,149)"/>
<path d="M0 0 C3.53372712 1.96318174 6.24479785 4.04070881 9 7 C7.35 6.67 5.7 6.34 4 6 C4 5.34 4 4.68 4 4 C2.68 3.34 1.36 2.68 0 2 C0 1.34 0 0.68 0 0 Z " fill="#128D3D" transform="translate(330,122)"/>
<path d="M0 0 C0.66 0 1.32 0 2 0 C2 1.65 2 3.3 2 5 C-0.875 5.125 -0.875 5.125 -4 5 C-4.66 4.34 -5.32 3.68 -6 3 C-4.02 3 -2.04 3 0 3 C0 2.01 0 1.02 0 0 Z " fill="#189C44" transform="translate(144,107)"/>
<path d="M0 0 C0.66 0.33 1.32 0.66 2 1 C2 1.66 2 2.32 2 3 C-0.375 4.6875 -0.375 4.6875 -3 6 C-3.66 5.67 -4.32 5.34 -5 5 C-3.35 3.35 -1.7 1.7 0 0 Z " fill="#29A05C" transform="translate(247,62)"/>
<path d="M0 0 C1.46015291 0.28241641 2.91809793 0.57626614 4.375 0.875 C5.18710938 1.03742187 5.99921875 1.19984375 6.8359375 1.3671875 C9 2 9 2 11 4 C7.7 3.67 4.4 3.34 1 3 C0.67 2.01 0.34 1.02 0 0 Z " fill="#0D984B" transform="translate(115,57)"/>
<path d="M0 0 C0.99 0.33 1.98 0.66 3 1 C1.625 3.5 1.625 3.5 0 6 C-0.66 6 -1.32 6 -2 6 C-1.125 1.125 -1.125 1.125 0 0 Z " fill="#139841" transform="translate(233,51)"/>
<path d="M0 0 C0.99 0.33 1.98 0.66 3 1 C1.6875 3.5 1.6875 3.5 0 6 C-0.99 6 -1.98 6 -3 6 C-2 4 -1 2 0 0 Z " fill="#108F3C" transform="translate(238,44)"/>
<path d="M0 0 C0.33 0.66 0.66 1.32 1 2 C-0.25 4.5625 -0.25 4.5625 -2 7 C-2.99 7.33 -3.98 7.66 -5 8 C-3.62845496 5.04590299 -2.01136276 2.55991624 0 0 Z " fill="#1C9355" transform="translate(212,26)"/>
<path d="M0 0 C0.66 0 1.32 0 2 0 C2.33 0.99 2.66 1.98 3 3 C3.66 3.33 4.32 3.66 5 4 C4.67 4.99 4.34 5.98 4 7 C2.35 5.35 0.7 3.7 -1 2 C-0.67 1.34 -0.34 0.68 0 0 Z " fill="#1F8C2A" transform="translate(264,192)"/>
<path d="M0 0 C0.66 0.33 1.32 0.66 2 1 C1.0479279 2.00596297 0.08812654 3.00461563 -0.875 4 C-1.40867188 4.556875 -1.94234375 5.11375 -2.4921875 5.6875 C-4 7 -4 7 -6 7 C-6 6.01 -6 5.02 -6 4 C-3.5625 2.375 -3.5625 2.375 -1 1 C-0.67 0.67 -0.34 0.34 0 0 Z " fill="#48BC69" transform="translate(222,82)"/>
<path d="M0 0 C4.75 0.75 4.75 0.75 7 3 C4.36 3 1.72 3 -1 3 C-0.67 2.01 -0.34 1.02 0 0 Z " fill="#038424" transform="translate(26,74)"/>
<path d="M0 0 C1.32 0.33 2.64 0.66 4 1 C1.36 2.98 -1.28 4.96 -4 7 C-2 3 -2 3 0 0 Z " fill="#02681E" transform="translate(270,8)"/>
</svg>
